<svg width="81" height="80" viewBox="0 0 81 80" fill="none" xmlns="http://www.w3.org/2000/svg">
<path fill-rule="evenodd" clip-rule="evenodd" d="M57.175 4.38061C57.175 3.2188 56.7223 2.10458 55.9164 1.28305C55.1105 0.461528 54.0175 0 52.8779 0C51.7382 0 50.6452 0.461528 49.8393 1.28305C49.0334 2.10458 48.5807 3.2188 48.5807 4.38061V17.6568C48.5807 18.8186 49.0334 19.9328 49.8393 20.7544C50.6452 21.5759 51.7382 22.0374 52.8779 22.0374C54.0175 22.0374 55.1105 21.5759 55.9164 20.7544C56.7223 19.9328 57.175 18.8186 57.175 17.6568V4.38061ZM24.8375 4.41566C24.8375 3.25385 24.3847 2.13962 23.5788 1.3181C22.773 0.496573 21.68 0.035045 20.5403 0.035045C19.4006 0.035045 18.3076 0.496573 17.5017 1.3181C16.6959 2.13962 16.2431 3.25385 16.2431 4.41566V56.7027C16.2431 57.8645 16.6959 58.9787 17.5017 59.8002C18.3076 60.6218 19.4006 61.0833 20.5403 61.0833C21.68 61.0833 22.773 60.6218 23.5788 59.8002C24.3847 58.9787 24.8375 57.8645 24.8375 56.7027V4.41566ZM8.6744 14.5904C8.6744 13.4286 8.22166 12.3143 7.41579 11.4928C6.60992 10.6713 5.51692 10.2098 4.37724 10.2098C3.23756 10.2098 2.14456 10.6713 1.33869 11.4928C0.532813 12.3143 0.0800781 13.4286 0.0800781 14.5904V47.1529C0.0800781 48.3148 0.532813 49.429 1.33869 50.2505C2.14456 51.072 3.23756 51.5336 4.37724 51.5336C5.51692 51.5336 6.60992 51.072 7.41579 50.2505C8.22166 49.429 8.6744 48.3148 8.6744 47.1529V14.5904ZM36.7091 10.2098C37.8487 10.2098 38.9417 10.6713 39.7476 11.4928C40.5535 12.3143 41.0062 13.4286 41.0062 14.5904V21.4884C41.0062 22.6502 40.5535 23.7644 39.7476 24.5859C38.9417 25.4075 37.8487 25.869 36.7091 25.869C35.5694 25.869 34.4764 25.4075 33.6705 24.5859C32.8646 23.7644 32.4119 22.6502 32.4119 21.4884V14.5904C32.4119 13.4286 32.8646 12.3143 33.6705 11.4928C34.4764 10.6713 35.5694 10.2098 36.7091 10.2098Z" fill="#3171E7"/>
<path fill-rule="evenodd" clip-rule="evenodd" d="M39.0356 52.9003C39.0356 47.5851 40.4852 44.0514 42.6509 41.8378C44.8224 39.6299 48.2888 38.1522 53.5027 38.1522C58.7166 38.1522 62.183 39.6299 64.3487 41.8378C66.5202 44.0514 67.9698 47.5851 67.9698 52.9003C67.9698 58.2154 66.5202 61.7491 64.3487 63.957C62.183 66.1706 58.7166 67.6484 53.5027 67.6484C48.2888 67.6484 44.8224 66.1706 42.6509 63.957C40.4852 61.7491 39.0356 58.2154 39.0356 52.9003ZM53.5027 29.391C46.7075 29.391 40.7888 31.3477 36.5776 35.6407C32.3607 39.9395 30.4355 45.9731 30.4355 52.9003C30.4355 59.8275 32.3607 65.8611 36.5776 70.1541C40.7888 74.4471 46.7075 76.4096 53.5027 76.4096C58.6364 76.4096 63.2659 75.294 67.0416 72.8934L72.6394 78.6057C73.0328 79.0361 73.5072 79.3813 74.0343 79.6208C74.5614 79.8602 75.1305 79.9889 75.7074 79.9993C76.2844 80.0097 76.8575 79.9015 77.3926 79.6812C77.9277 79.4608 78.4137 79.1329 78.8218 78.7169C79.2299 78.301 79.5515 77.8055 79.7677 77.26C79.9838 76.7145 80.0899 76.1303 80.0797 75.5421C80.0696 74.9539 79.9433 74.3738 79.7084 73.8365C79.4735 73.2991 79.1349 72.8155 78.7127 72.4145L73.1149 66.7021C75.4641 62.8472 76.5641 58.1337 76.5641 52.9003C76.5641 45.9731 74.639 39.9395 70.4278 35.6465C66.2166 31.3477 60.298 29.391 53.5027 29.391Z" fill="white"/>
</svg>
