<svg width="81" height="80" viewBox="0 0 81 80" fill="none" xmlns="http://www.w3.org/2000/svg">
<path fill-rule="evenodd" clip-rule="evenodd" d="M0.177129 28.7195C0.184412 24.6885 1.0417 20.704 2.69342 17.0243C4.34513 13.3446 6.75442 10.0517 9.76511 7.35926C12.7758 4.66679 16.3207 2.63474 20.17 1.39485C24.0194 0.154957 28.0872 -0.265117 32.1099 0.161859C36.1326 0.588835 40.0204 1.85333 43.5212 3.87338C47.022 5.89344 50.0578 8.62396 52.4317 11.888C54.8056 15.152 56.4647 18.8766 57.3015 22.8205C58.1382 26.7643 58.1339 30.8393 57.2888 34.7814C55.1097 33.5117 52.6329 32.8373 50.1086 32.8263C47.5842 32.8153 45.1016 33.4681 42.9114 34.7188C40.7213 35.9695 38.901 37.7739 37.6344 39.9497C36.3678 42.1255 35.6997 44.5958 35.6976 47.1112V56.7302C31.4563 57.7307 27.0426 57.7615 22.7877 56.8202C18.5327 55.8789 14.5468 53.99 11.1288 51.2951C7.71081 48.6002 4.94947 45.1692 3.0518 41.2594C1.15413 37.3496 0.16938 33.0625 0.17139 28.7195H0.177129ZM54.798 41.7698C52.1439 46.9493 47.9834 51.2105 42.8602 53.9966V47.1226C42.8599 45.7447 43.2592 44.396 44.0101 43.2389C44.7611 42.0818 45.8317 41.1656 47.093 40.6006C48.3543 40.0357 49.7526 39.846 51.1196 40.0545C52.4866 40.2629 53.7639 40.8548 54.798 41.7698Z" fill="#3171E7"/>
<path fill-rule="evenodd" clip-rule="evenodd" d="M29.0455 10.202C31.0313 10.202 32.6326 11.8033 32.6326 13.7763V15.4004C34.0436 15.7226 35.3501 16.3947 36.4307 17.3545C37.5114 18.3143 38.3311 19.5306 38.8138 20.8905C38.9706 21.3332 39.0383 21.8023 39.0131 22.2711C38.9879 22.7399 38.8703 23.1992 38.667 23.6227C38.4637 24.0462 38.1786 24.4257 37.8281 24.7394C37.4776 25.0531 37.0686 25.295 36.6243 25.4512C36.18 25.6074 35.7091 25.6749 35.2387 25.6498C34.7682 25.6247 34.3073 25.5075 33.8823 25.3049C33.0239 24.8958 32.3638 24.1636 32.0472 23.2695C31.9498 22.9951 31.7695 22.7576 31.531 22.5897C31.2926 22.4217 31.0077 22.3315 30.7157 22.3316H29.0627H29.0455H29.034H26.8416C26.6274 22.3353 26.422 22.4169 26.2639 22.5611C26.1059 22.7052 26.0062 22.902 25.9837 23.1143C25.9611 23.3265 26.0172 23.5397 26.1414 23.7137C26.2656 23.8876 26.4493 24.0103 26.658 24.0587L32.5522 25.3454C34.455 25.7653 36.1579 26.8173 37.3815 28.3287C38.6051 29.84 39.2767 31.721 39.2861 33.6629C39.2954 35.6047 38.642 37.4921 37.4329 39.0151C36.2239 40.5381 34.5312 41.6063 32.6326 42.0443V43.6685C32.6326 44.6164 32.2547 45.5255 31.582 46.1958C30.9093 46.8661 29.9969 47.2427 29.0455 47.2427C28.0942 47.2427 27.1818 46.8661 26.5091 46.1958C25.8364 45.5255 25.4585 44.6164 25.4585 43.6685V42.05C24.0491 41.7256 22.7446 41.0525 21.6652 40.093C20.5859 39.1334 19.7666 37.9184 19.283 36.56C19.1258 36.1173 19.0578 35.648 19.0826 35.1791C19.1074 34.7102 19.2247 34.2507 19.4278 33.8269C19.6308 33.4032 19.9157 33.0234 20.266 32.7093C20.6164 32.3952 21.0254 32.153 21.4697 31.9964C22.367 31.6801 23.3536 31.732 24.2125 32.1407C25.0714 32.5493 25.7322 33.2811 26.0496 34.1752C26.1477 34.4491 26.3282 34.6862 26.5665 34.854C26.8048 35.0219 27.0893 35.1124 27.3811 35.1131H29.0226H29.0455H29.0742H30.7157C31.0599 35.106 31.3897 34.9742 31.6436 34.7424C31.8975 34.5107 32.0581 34.1948 32.0953 33.8537C32.1326 33.5127 32.044 33.1697 31.8461 32.889C31.6482 32.6082 31.3545 32.4089 31.0198 32.3281L25.1256 31.0413C23.3048 30.6424 21.6794 29.6263 20.5267 28.1664C19.3739 26.7065 18.7652 24.8932 18.8045 23.036C18.8438 21.1788 19.5286 19.3928 20.7421 17.9826C21.9555 16.5723 23.6225 15.6254 25.4585 15.3032V13.7763C25.4585 11.8033 27.0655 10.202 29.0455 10.202Z" fill="white"/>
<path d="M42.8662 80V47.1169C42.8662 45.221 43.6221 43.4027 44.9675 42.0621C46.3129 40.7215 48.1376 39.9684 50.0403 39.9684C51.943 39.9684 53.7678 40.7215 55.1132 42.0621C56.4586 43.4027 57.2144 45.221 57.2144 47.1169V62.8436H68.693C71.7373 62.8436 74.657 64.0486 76.8096 66.1936C78.9623 68.3386 80.1716 71.2477 80.1716 74.2812V80" fill="white"/>
</svg>
