<svg width="80" height="80" viewBox="0 0 80 80" fill="none" xmlns="http://www.w3.org/2000/svg">
<path fill-rule="evenodd" clip-rule="evenodd" d="M49.1104 0C43.5039 0 38.0525 0.554727 32.8873 1.14524C29.4224 1.54946 26.196 3.11376 23.7326 5.58388C21.2692 8.054 19.7135 11.2847 19.3184 14.751C18.7518 19.8986 18.2329 25.3146 18.2329 30.8858C18.2329 36.4509 18.7518 41.867 19.3184 47.0146C19.7135 50.4809 21.2692 53.7116 23.7326 56.1817C26.196 58.6518 29.4224 60.2161 32.8873 60.6203C38.0525 61.2168 43.5039 61.7656 49.1104 61.7656C54.7169 61.7656 60.1684 61.2109 65.3335 60.6203C68.8006 60.2186 72.0297 58.6554 74.4955 56.1851C76.9613 53.7148 78.5187 50.4827 78.9143 47.0146C79.4809 41.867 79.9998 36.4509 79.9998 30.8858C79.9998 25.3146 79.4809 19.8986 78.9143 14.751C78.519 11.2838 76.9625 8.05241 74.4978 5.58218C72.0332 3.11195 68.8055 1.54821 65.3395 1.14524C60.1684 0.554727 54.7229 0 49.1164 0H49.1104Z" fill="#3171E7"/>
<path fill-rule="evenodd" clip-rule="evenodd" d="M54.9377 37.3098C55.2396 38.0036 55.7136 38.6088 56.3148 39.0681C56.916 39.5274 57.6245 39.8256 58.3732 39.9343C59.2416 40.0564 60.126 39.8903 60.8909 39.4615C61.6557 39.0327 62.2589 38.3648 62.6079 37.5604C63.7411 35.0134 64.0871 31.858 63.8366 28.8398C63.5861 25.7978 62.7153 22.5947 61.1168 19.9343C60.8645 19.5131 60.5121 19.1607 60.091 18.9084C57.3639 17.3461 54.3207 16.4165 51.1862 16.1885C48.1742 15.9439 45.013 16.2839 42.4663 17.4172C41.6618 17.7662 40.9941 18.3694 40.5653 19.1344C40.1365 19.8993 39.9704 20.7838 40.0924 21.6522C40.2012 22.401 40.4994 23.1095 40.9586 23.7108C41.4179 24.312 42.0231 24.7861 42.7168 25.0879C43.8142 25.5771 45.1741 26.257 46.5459 27.116L36.0904 37.5842C35.3002 38.4323 34.87 39.5539 34.8905 40.7129C34.9109 41.8719 35.3804 42.9776 36.2 43.7973C37.0196 44.6169 38.1253 45.0864 39.2841 45.1069C40.443 45.1273 41.5646 44.6971 42.4126 43.9069L52.88 33.4387C53.7508 34.8285 54.4427 36.2063 54.9377 37.3158V37.3098ZM9.7398 28.2791C9.90094 27.127 9.60699 25.9575 8.92029 25.0185C8.2336 24.0795 7.20818 23.445 6.0615 23.2495C4.91483 23.0539 3.73709 23.3128 2.77807 23.9712C1.81906 24.6295 1.15419 25.6356 0.924476 26.776C0.584508 28.7444 0 34.1008 0 41.2705C0 48.9651 0.805189 56.439 1.58652 63.4238C2.02286 67.2205 3.7288 70.7585 6.42772 73.4641C9.12664 76.1698 12.6603 77.8843 16.4557 78.3298C23.4578 79.141 30.9849 80 38.7266 80C45.0011 80 49.9277 79.5108 51.7647 79.2365C52.9106 79.0318 53.9316 78.3884 54.6109 77.443C55.2901 76.4976 55.5741 75.3246 55.4025 74.1732C55.2309 73.0218 54.6173 71.9826 53.692 71.2763C52.7666 70.57 51.6024 70.2523 50.4466 70.3907C49.0986 70.5935 44.6134 71.0528 38.7266 71.0528C31.5753 71.0528 24.5493 70.2594 17.4875 69.4423C15.7015 69.2297 14.039 68.4221 12.7678 67.1497C11.4965 65.8773 10.6904 64.214 10.4794 62.4276C9.69209 55.419 8.95251 48.3984 8.95251 41.2645C8.95251 34.5004 9.51316 29.663 9.74577 28.2791H9.7398Z" fill="white"/>
</svg>
