<svg width="752" height="538" viewBox="0 0 752 538" fill="none" xmlns="http://www.w3.org/2000/svg">
<path d="M0.646446 268.652C0.45118 268.847 0.451179 269.164 0.646446 269.359L3.82842 272.541C4.02369 272.736 4.34027 272.736 4.53553 272.541C4.73079 272.346 4.73079 272.029 4.53553 271.834L1.7071 269.006L4.53553 266.177C4.73079 265.982 4.73079 265.665 4.53553 265.47C4.34027 265.275 4.02369 265.275 3.82842 265.47L0.646446 268.652ZM122 268.506L120.992 268.506L120.992 269.506L122 269.506L122 268.506ZM118.975 268.506L116.958 268.506L116.958 269.506L118.975 269.506L118.975 268.506ZM114.942 268.506L112.925 268.506L112.925 269.506L114.942 269.506L114.942 268.506ZM110.908 268.506L108.892 268.506L108.892 269.506L110.908 269.506L110.908 268.506ZM106.875 268.506L104.858 268.506L104.858 269.506L106.875 269.506L106.875 268.506ZM102.842 268.506L100.825 268.506L100.825 269.506L102.842 269.506L102.842 268.506ZM98.8083 268.506L96.7917 268.506L96.7917 269.506L98.8083 269.506L98.8083 268.506ZM94.775 268.506L92.7583 268.506L92.7583 269.506L94.775 269.506L94.775 268.506ZM90.7417 268.506L88.725 268.506L88.725 269.506L90.7417 269.506L90.7417 268.506ZM86.7083 268.506L84.6917 268.506L84.6917 269.506L86.7083 269.506L86.7083 268.506ZM82.675 268.506L80.6583 268.506L80.6583 269.506L82.675 269.506L82.675 268.506ZM78.6417 268.506L76.625 268.506L76.625 269.506L78.6417 269.506L78.6417 268.506ZM74.6083 268.506L72.5917 268.506L72.5917 269.506L74.6083 269.506L74.6083 268.506ZM70.575 268.506L68.5583 268.506L68.5583 269.506L70.575 269.506L70.575 268.506ZM66.5417 268.506L64.525 268.506L64.525 269.506L66.5417 269.506L66.5417 268.506ZM62.5083 268.506L60.4917 268.506L60.4917 269.506L62.5083 269.506L62.5083 268.506ZM58.475 268.506L56.4583 268.506L56.4583 269.506L58.475 269.506L58.475 268.506ZM54.4417 268.506L52.425 268.506L52.425 269.506L54.4417 269.506L54.4417 268.506ZM50.4083 268.506L48.3917 268.506L48.3917 269.506L50.4083 269.506L50.4083 268.506ZM46.375 268.506L44.3583 268.506L44.3583 269.506L46.375 269.506L46.375 268.506ZM42.3416 268.506L40.325 268.506L40.325 269.506L42.3416 269.506L42.3416 268.506ZM38.3083 268.506L36.2916 268.506L36.2916 269.506L38.3083 269.506L38.3083 268.506ZM34.275 268.506L32.2583 268.506L32.2583 269.506L34.275 269.506L34.275 268.506ZM30.2416 268.506L28.225 268.506L28.225 269.506L30.2416 269.506L30.2416 268.506ZM26.2083 268.506L24.1916 268.506L24.1916 269.506L26.2083 269.506L26.2083 268.506ZM22.1749 268.506L20.1583 268.506L20.1583 269.506L22.1749 269.506L22.1749 268.506ZM18.1416 268.506L16.1249 268.506L16.1249 269.506L18.1416 269.506L18.1416 268.506ZM14.1083 268.506L12.0916 268.506L12.0916 269.506L14.1083 269.506L14.1083 268.506ZM10.0749 268.506L8.05824 268.506L8.05824 269.506L10.0749 269.506L10.0749 268.506ZM6.04158 268.506L4.02491 268.506L4.02491 269.506L6.04158 269.506L6.04158 268.506ZM2.00823 268.506L1 268.506L1 269.506L2.00823 269.506L2.00823 268.506Z" fill="#A9A9A9"/>
<path d="M0.646444 3.64645C0.451183 3.84171 0.451186 4.1583 0.64645 4.35356L3.82846 7.53551C4.02372 7.73077 4.3403 7.73077 4.53556 7.5355C4.73082 7.34024 4.73082 7.02366 4.53556 6.8284L1.70711 3.99999L4.53551 1.17154C4.73077 0.97628 4.73077 0.659697 4.5355 0.464437C4.34024 0.269176 4.02366 0.269179 3.8284 0.464443L0.646444 3.64645ZM48.2476 56.4224L47.756 56.5134L48.2476 56.4224ZM60.9238 191.224L60.4241 191.242L60.4248 191.259L60.4265 191.275L60.9238 191.224ZM101.833 268.316L101.865 267.817L101.833 268.316ZM1 4.5C1.32928 4.5 1.65719 4.50543 1.98374 4.5162L2.0167 3.51674C1.67918 3.50561 1.34027 3.5 0.999996 3.5L1 4.5ZM3.93472 4.64481C4.58667 4.70937 5.23298 4.79511 5.87357 4.9012L6.03696 3.91464C5.37507 3.80502 4.70713 3.71641 4.03326 3.64968L3.93472 4.64481ZM7.79392 5.2834C8.43089 5.43157 9.06195 5.59978 9.68702 5.7872L9.97422 4.82933C9.32946 4.63601 8.67818 4.4624 8.0205 4.3094L7.79392 5.2834ZM11.5458 6.40682C12.1586 6.63177 12.7653 6.87506 13.3658 7.13588L13.7642 6.21866C13.1464 5.95032 12.5217 5.69982 11.8904 5.46808L11.5458 6.40682ZM15.1434 7.96737C15.7271 8.26008 16.3046 8.56922 16.8758 8.89398L17.37 8.02467C16.7841 7.69154 16.1913 7.37417 15.5917 7.07347L15.1434 7.96737ZM18.561 9.90835C19.1119 10.2586 19.6567 10.6231 20.195 11.0013L20.7698 10.1831C20.2192 9.79626 19.6617 9.42309 19.0974 9.0644L18.561 9.90835ZM21.7799 12.1675C22.2982 12.5663 22.8102 12.9776 23.3158 13.4005L23.9575 12.6335C23.4417 12.2021 22.9191 11.7823 22.3897 11.3749L21.7799 12.1675ZM24.8033 14.6948C25.2896 15.1344 25.7695 15.5846 26.2429 16.0447L26.9398 15.3275C26.458 14.8593 25.9694 14.4008 25.4739 13.9529L24.8033 14.6948ZM27.6343 17.4442C28.0889 17.9171 28.537 18.3989 28.9786 18.8889L29.7215 18.2194C29.2729 17.7216 28.8174 17.232 28.3552 16.7511L27.6343 17.4442ZM30.2783 20.3762C30.7035 20.8779 31.1221 21.3869 31.5341 21.9024L32.3153 21.2782C31.8975 20.7553 31.4727 20.2388 31.0412 19.7296L30.2783 20.3762ZM32.7467 23.4641C33.1435 23.9898 33.5335 24.5213 33.9167 25.0579L34.7305 24.4767C34.3423 23.9331 33.947 23.3945 33.5449 22.8617L32.7467 23.4641ZM35.0457 26.6821C35.4155 27.2287 35.7784 27.7797 36.1343 28.3345L36.9759 27.7945C36.6158 27.233 36.2484 26.6752 35.8739 26.1217L35.0457 26.6821ZM37.1828 30.0125C37.5263 30.5769 37.8625 31.1443 38.1915 31.714L39.0575 31.2139C38.7247 30.6377 38.3846 30.0637 38.037 29.4927L37.1828 30.0125ZM39.1621 33.4397C39.4805 34.0209 39.7913 34.6037 40.0944 35.1874L40.9818 34.7266C40.6754 34.1364 40.3611 33.547 40.0392 32.9592L39.1621 33.4397ZM40.9876 36.9548C41.2803 37.5502 41.5649 38.1457 41.8414 38.7404L42.7482 38.319C42.4687 37.7176 42.1809 37.1156 41.885 36.5136L40.9876 36.9548ZM42.6553 40.5429C42.9221 41.1515 43.1801 41.7586 43.4293 42.3632L44.3539 41.9821C44.1019 41.3707 43.8409 40.7568 43.5711 40.1414L42.6553 40.5429ZM44.1638 44.204C44.404 44.8267 44.6346 45.4457 44.8552 46.0602L45.7964 45.7222C45.573 45.1003 45.3398 44.4739 45.0967 43.844L44.1638 44.204ZM45.5017 47.9314C45.7124 48.5665 45.9121 49.1954 46.1006 49.817L47.0575 49.5268C46.8665 48.8968 46.6642 48.2597 46.4508 47.6165L45.5017 47.9314ZM46.6483 51.7167C46.8253 52.3648 46.9893 53.0031 47.1401 53.6303L48.1124 53.3964C47.9591 52.7591 47.7925 52.1109 47.6129 51.4533L46.6483 51.7167ZM47.5695 55.5571C47.6355 55.8796 47.6977 56.1984 47.756 56.5134L48.7393 56.3314C48.6798 56.0101 48.6165 55.6851 48.5493 55.3567L47.5695 55.5571ZM47.756 56.5134C47.8156 56.8356 47.875 57.1588 47.9341 57.4829L48.9179 57.3034C48.8586 56.9785 48.7991 56.6545 48.7393 56.3314L47.756 56.5134ZM48.2858 59.439C48.4014 60.0913 48.516 60.7473 48.6296 61.4068L49.6151 61.237C49.5012 60.576 49.3863 59.9185 49.2704 59.2645L48.2858 59.439ZM48.9618 63.3617C49.0716 64.0166 49.1805 64.6746 49.2883 65.3357L50.2753 65.1746C50.1672 64.5121 50.0581 63.8527 49.9481 63.1963L48.9618 63.3617ZM49.6036 67.2924C49.7076 67.9465 49.8107 68.6033 49.9129 69.2627L50.9011 69.1096C50.7987 68.4489 50.6954 67.7907 50.5912 67.1353L49.6036 67.2924ZM50.214 71.2301C50.3128 71.8836 50.4108 72.5395 50.5078 73.1976L51.4971 73.0516C51.3999 72.3924 51.3018 71.7353 51.2028 71.0806L50.214 71.2301ZM50.7958 75.1736C50.8899 75.8269 50.9831 76.4821 51.0756 77.1392L52.0658 76.9999C51.9733 76.3418 51.8799 75.6854 51.7856 75.0311L50.7958 75.1736ZM51.3504 79.116C51.4404 79.7712 51.5296 80.4281 51.6181 81.0865L52.6092 80.9534C52.5206 80.2939 52.4312 79.636 52.3411 78.9798L51.3504 79.116ZM51.8803 83.0605C51.9666 83.7184 52.0523 84.3776 52.1371 85.0381L53.1289 84.9107C53.044 84.2493 52.9583 83.5891 52.8717 82.9303L51.8803 83.0605ZM52.3877 87.0108C52.4705 87.6695 52.5525 88.3293 52.6338 88.9901L53.6263 88.868C53.5449 88.2064 53.4628 87.5457 53.3799 86.8861L52.3877 87.0108ZM52.8741 90.9653C52.9534 91.6238 53.032 92.2831 53.1098 92.9431L54.1029 92.826C54.025 92.1652 53.9463 91.5051 53.867 90.8458L52.8741 90.9653ZM53.3407 94.9226C53.4167 95.5813 53.4921 96.2406 53.5667 96.9003L54.5604 96.7879C54.4857 96.1275 54.4102 95.4674 54.3341 94.8079L53.3407 94.9226ZM53.7884 98.8806C53.8615 99.5403 53.9339 100.2 54.0056 100.86L54.9997 100.752C54.9279 100.092 54.8555 99.4309 54.7823 98.7705L53.7884 98.8806ZM54.2184 102.841C54.2887 103.501 54.3583 104.161 54.4272 104.822L55.4218 104.718C55.3528 104.057 55.2832 103.396 55.2128 102.735L54.2184 102.841ZM54.632 106.804C54.6995 107.464 54.7664 108.124 54.8326 108.784L55.8276 108.684C55.7613 108.024 55.6944 107.363 55.6268 106.702L54.632 106.804ZM55.0296 110.768C55.0946 111.429 55.159 112.09 55.2227 112.75L56.2181 112.654C56.1543 111.993 56.0899 111.332 56.0248 110.67L55.0296 110.768ZM55.412 114.732C55.4747 115.395 55.5368 116.057 55.5981 116.718L56.5938 116.625C56.5324 115.964 56.4703 115.301 56.4076 114.638L55.412 114.732ZM55.7801 118.698C55.8405 119.362 55.9003 120.024 55.9593 120.686L56.9554 120.597C56.8963 119.935 56.8365 119.272 56.776 118.607L55.7801 118.698ZM56.1348 122.669C56.1928 123.332 56.2502 123.993 56.3069 124.652L57.3032 124.567C57.2465 123.906 57.1891 123.245 57.131 122.582L56.1348 122.669ZM56.4762 126.641C56.532 127.302 56.5871 127.961 56.6415 128.619L57.6381 128.537C57.5836 127.878 57.5285 127.218 57.4727 126.557L56.4762 126.641ZM56.8048 130.612C56.8586 131.275 56.9117 131.936 56.9642 132.595L57.961 132.515C57.9085 131.856 57.8553 131.194 57.8015 130.531L56.8048 130.612ZM57.1209 134.581C57.1729 135.247 57.2241 135.909 57.2747 136.57L58.2718 136.493C58.2212 135.833 58.1699 135.169 58.1179 134.503L57.1209 134.581ZM57.425 138.549C57.4752 139.217 57.5247 139.882 57.5735 140.545L58.5708 140.471C58.5219 139.808 58.4724 139.143 58.4221 138.474L57.425 138.549ZM57.7179 142.523C57.7662 143.191 57.8138 143.857 57.8607 144.519L58.8582 144.448C58.8113 143.785 58.7636 143.12 58.7153 142.45L57.7179 142.523ZM57.9999 146.502C58.0462 147.169 58.0919 147.832 58.1368 148.492L59.1345 148.424C59.0895 147.764 59.0439 147.1 58.9975 146.432L57.9999 146.502ZM58.2709 150.48C58.3153 151.146 58.359 151.807 58.402 152.464L59.3998 152.399C59.3568 151.741 59.3131 151.08 59.2687 150.414L58.2709 150.48ZM58.531 154.458C58.5736 155.123 58.6154 155.783 58.6565 156.437L59.6545 156.375C59.6134 155.72 59.5716 155.059 59.529 154.394L58.531 154.458ZM58.7806 158.437C58.8213 159.101 58.8613 159.759 58.9005 160.412L59.8987 160.352C59.8595 159.699 59.8195 159.04 59.7787 158.375L58.7806 158.437ZM59.0196 162.415C59.0587 163.08 59.0969 163.738 59.1343 164.389L60.1327 164.332C60.0952 163.68 60.057 163.021 60.0179 162.356L59.0196 162.415ZM59.2482 166.393C59.2856 167.06 59.3222 167.719 59.3579 168.371L60.3564 168.316C60.3206 167.664 60.284 167.005 60.2466 166.337L59.2482 166.393ZM59.4662 170.371C59.5021 171.042 59.5371 171.704 59.5711 172.356L60.5697 172.304C60.5357 171.651 60.5007 170.989 60.4648 170.318L59.4662 170.371ZM59.6735 174.345C59.7079 175.023 59.7412 175.689 59.7736 176.343L60.7723 176.293C60.74 175.639 60.7066 174.973 60.6722 174.295L59.6735 174.345ZM59.8694 178.309C59.9023 178.995 59.9341 179.667 59.9646 180.323L60.9635 180.276C60.933 179.62 60.9012 178.948 60.8682 178.261L59.8694 178.309ZM60.0558 182.312C60.0862 182.987 60.1152 183.643 60.1429 184.28L61.142 184.237C61.1143 183.599 61.0852 182.943 61.0548 182.267L60.0558 182.312ZM60.2286 186.287C60.2576 186.982 60.2849 187.649 60.3104 188.287L61.3096 188.247C61.2841 187.608 61.2568 186.941 61.2277 186.245L60.2286 186.287ZM60.3882 190.28C60.4007 190.611 60.4127 190.932 60.4241 191.242L61.4235 191.205C61.412 190.895 61.4 190.574 61.3874 190.242L60.3882 190.28ZM60.4265 191.275C60.4608 191.607 60.4946 191.938 60.5279 192.267L61.5229 192.167C61.4895 191.836 61.4556 191.505 61.4211 191.172L60.4265 191.275ZM60.7215 194.237C60.7847 194.897 60.8459 195.553 60.9054 196.205L61.9013 196.114C61.8417 195.46 61.7803 194.803 61.717 194.142L60.7215 194.237ZM61.0811 198.179C61.1385 198.839 61.1943 199.495 61.2487 200.148L62.2452 200.064C62.1908 199.411 62.1349 198.753 62.0774 198.092L61.0811 198.179ZM61.4102 202.124C61.4631 202.784 61.5148 203.441 61.5655 204.094L62.5625 204.016C62.5118 203.363 62.46 202.705 62.407 202.044L61.4102 202.124ZM61.717 206.071C61.767 206.733 61.8163 207.39 61.8649 208.043L62.8621 207.969C62.8135 207.316 62.7642 206.658 62.7141 205.995L61.717 206.071ZM62.0113 210.02C62.0602 210.683 62.1088 211.342 62.1572 211.996L63.1545 211.922C63.1061 211.268 63.0575 210.609 63.0085 209.946L62.0113 210.02ZM62.3043 213.969C62.3542 214.634 62.4043 215.294 62.4548 215.949L63.4518 215.872C63.4014 215.218 63.3514 214.559 63.3015 213.895L62.3043 213.969ZM62.6093 217.918C62.6627 218.585 62.7169 219.247 62.7721 219.903L63.7686 219.819C63.7135 219.164 63.6594 218.504 63.6061 217.838L62.6093 217.918ZM62.9425 221.869C63.0022 222.536 63.0634 223.198 63.1265 223.854L64.1219 223.758C64.0591 223.105 63.9981 222.445 63.9385 221.779L62.9425 221.869ZM63.3238 225.826C63.3931 226.49 63.4646 227.147 63.5389 227.798L64.5324 227.685C64.4586 227.037 64.3874 226.383 64.3184 225.722L63.3238 225.826ZM63.7759 229.776C63.859 230.437 63.9455 231.091 64.0358 231.737L65.0262 231.599C64.9366 230.957 64.8507 230.308 64.768 229.651L63.7759 229.776ZM64.3271 233.711C64.4304 234.374 64.5385 235.029 64.6516 235.676L65.6367 235.504C65.5246 234.864 65.4176 234.215 65.3151 233.557L64.3271 233.711ZM65.0133 237.625C65.1436 238.287 65.2801 238.939 65.4234 239.583L66.3995 239.366C66.2581 238.73 66.1232 238.086 65.9945 237.432L65.0133 237.625ZM65.8844 241.526C66.0489 242.177 66.2214 242.818 66.4026 243.449L67.3637 243.173C67.1856 242.553 67.0159 241.922 66.854 241.281L65.8844 241.526ZM66.9886 245.358C67.1992 246.001 67.4202 246.632 67.6525 247.252L68.5889 246.901C68.3618 246.295 68.1454 245.677 67.9389 245.047L66.9886 245.358ZM68.399 249.112C68.6651 249.731 68.9442 250.338 69.2373 250.932L70.134 250.489C69.8491 249.912 69.5773 249.321 69.3178 248.717L68.399 249.112ZM70.1763 252.704C70.5102 253.292 70.8599 253.865 71.2266 254.424L72.0627 253.875C71.7081 253.335 71.3694 252.78 71.0457 252.21L70.1763 252.704ZM72.3879 256.07C72.7941 256.605 73.2185 257.125 73.662 257.63L74.4132 256.97C73.9858 256.484 73.5766 255.982 73.1846 255.465L72.3879 256.07ZM75.0475 259.094C75.5252 259.563 76.0225 260.016 76.5402 260.453L77.1854 259.689C76.6867 259.268 76.2078 258.832 75.7478 258.38L75.0475 259.094ZM78.1289 261.698C78.6646 262.087 79.2198 262.461 79.7953 262.82L80.3248 261.972C79.7689 261.625 79.2331 261.264 78.7165 260.888L78.1289 261.698ZM81.5345 263.826C82.1172 264.138 82.7187 264.437 83.3396 264.722L83.7564 263.813C83.1538 263.536 82.5708 263.247 82.0067 262.945L81.5345 263.826ZM85.195 265.508C85.8023 265.746 86.4265 265.972 87.0683 266.186L87.3846 265.237C86.7585 265.028 86.1504 264.808 85.5595 264.577L85.195 265.508ZM88.986 266.775C89.6193 266.953 90.2685 267.122 90.9339 267.279L91.1643 266.306C90.5122 266.152 89.8768 265.987 89.2575 265.812L88.986 266.775ZM92.8707 267.699C93.5171 267.826 94.1779 267.945 94.8535 268.054L95.0129 267.066C94.3484 266.959 93.6989 266.843 93.0642 266.718L92.8707 267.699ZM96.8136 268.339C97.463 268.423 98.1253 268.5 98.8006 268.568L98.9016 267.573C98.2353 267.506 97.5824 267.43 96.9425 267.347L96.8136 268.339ZM100.783 268.744C101.119 268.769 101.459 268.793 101.802 268.815L101.865 267.817C101.526 267.795 101.191 267.772 100.858 267.747L100.783 268.744ZM101.802 268.815C102.148 268.837 102.488 268.858 102.823 268.879L102.885 267.881C102.551 267.86 102.211 267.839 101.865 267.817L101.802 268.815ZM104.837 269.001C105.537 269.042 106.208 269.079 106.852 269.114L106.906 268.116C106.263 268.081 105.594 268.043 104.895 268.002L104.837 269.001ZM108.879 269.22C109.587 269.255 110.258 269.286 110.892 269.313L110.936 268.314C110.303 268.287 109.635 268.256 108.928 268.221L108.879 269.22ZM112.914 269.394C113.645 269.42 114.317 269.44 114.936 269.456L114.961 268.456C114.346 268.441 113.677 268.42 112.95 268.394L112.914 269.394ZM116.97 269.494C117.762 269.503 118.432 269.501 118.998 269.493L118.984 268.493C118.427 268.501 117.766 268.503 116.981 268.494L116.97 269.494ZM121.05 269.411C121.497 269.375 121.769 269.334 121.938 269.297C122.023 269.278 122.089 269.259 122.141 269.24C122.168 269.23 122.193 269.219 122.217 269.207C122.229 269.201 122.242 269.194 122.254 269.187C122.26 269.183 122.266 269.18 122.273 269.175C122.276 269.173 122.279 269.171 122.282 269.169C122.284 269.168 122.285 269.167 122.287 269.166C122.288 269.165 122.289 269.165 122.289 269.164C122.29 269.164 122.29 269.163 122.291 269.163C122.291 269.163 122.292 269.162 122 268.756C121.708 268.35 121.709 268.35 121.709 268.349C121.71 268.349 121.71 268.349 121.711 268.349C121.711 268.348 121.712 268.347 121.713 268.347C121.715 268.346 121.716 268.345 121.718 268.344C121.721 268.342 121.724 268.34 121.727 268.338C121.732 268.334 121.738 268.331 121.743 268.328C121.753 268.322 121.762 268.317 121.769 268.313C121.783 268.306 121.793 268.303 121.794 268.302C121.797 268.301 121.778 268.308 121.724 268.32C121.616 268.344 121.393 268.38 120.97 268.414L121.05 269.411Z" fill="#A9A9A9"/>
<path d="M0.646444 534.354C0.451183 534.158 0.451186 533.842 0.64645 533.646L3.82846 530.464C4.02372 530.269 4.3403 530.269 4.53556 530.464C4.73082 530.66 4.73082 530.976 4.53556 531.172L1.70711 534L4.53551 536.828C4.73077 537.024 4.73077 537.34 4.5355 537.536C4.34024 537.731 4.02366 537.731 3.8284 537.536L0.646444 534.354ZM48.2476 481.578L48.7393 481.669L48.2476 481.578ZM60.9238 346.776L60.4241 346.758L60.4248 346.741L60.4265 346.725L60.9238 346.776ZM101.833 269.684L101.865 270.183L101.833 269.684ZM1 533.5C1.32928 533.5 1.65719 533.495 1.98374 533.484L2.0167 534.483C1.67918 534.494 1.34027 534.5 0.999996 534.5L1 533.5ZM3.93472 533.355C4.58667 533.291 5.23298 533.205 5.87357 533.099L6.03696 534.085C5.37507 534.195 4.70713 534.284 4.03326 534.35L3.93472 533.355ZM7.79392 532.717C8.43089 532.568 9.06195 532.4 9.68702 532.213L9.97422 533.171C9.32946 533.364 8.67818 533.538 8.0205 533.691L7.79392 532.717ZM11.5458 531.593C12.1586 531.368 12.7653 531.125 13.3658 530.864L13.7642 531.781C13.1464 532.05 12.5217 532.3 11.8904 532.532L11.5458 531.593ZM15.1434 530.033C15.7271 529.74 16.3046 529.431 16.8758 529.106L17.37 529.975C16.7841 530.308 16.1913 530.626 15.5917 530.927L15.1434 530.033ZM18.561 528.092C19.1119 527.741 19.6567 527.377 20.195 526.999L20.7698 527.817C20.2192 528.204 19.6617 528.577 19.0974 528.936L18.561 528.092ZM21.7799 525.833C22.2982 525.434 22.8102 525.022 23.3158 524.599L23.9575 525.366C23.4417 525.798 22.9191 526.218 22.3897 526.625L21.7799 525.833ZM24.8033 523.305C25.2896 522.866 25.7695 522.415 26.2429 521.955L26.9398 522.672C26.458 523.141 25.9694 523.599 25.4739 524.047L24.8033 523.305ZM27.6343 520.556C28.0889 520.083 28.537 519.601 28.9786 519.111L29.7215 519.781C29.2729 520.278 28.8174 520.768 28.3552 521.249L27.6343 520.556ZM30.2783 517.624C30.7035 517.122 31.1221 516.613 31.5341 516.098L32.3153 516.722C31.8975 517.245 31.4727 517.761 31.0412 518.27L30.2783 517.624ZM32.7467 514.536C33.1435 514.01 33.5335 513.479 33.9167 512.942L34.7305 513.523C34.3423 514.067 33.947 514.605 33.5449 515.138L32.7467 514.536ZM35.0457 511.318C35.4155 510.771 35.7784 510.22 36.1343 509.666L36.9759 510.205C36.6158 510.767 36.2484 511.325 35.8739 511.878L35.0457 511.318ZM37.1828 507.987C37.5263 507.423 37.8625 506.856 38.1915 506.286L39.0575 506.786C38.7247 507.362 38.3845 507.936 38.037 508.507L37.1828 507.987ZM39.1621 504.56C39.4805 503.979 39.7913 503.396 40.0943 502.813L40.9818 503.273C40.6754 503.864 40.3611 504.453 40.0392 505.041L39.1621 504.56ZM40.9876 501.045C41.2803 500.45 41.5649 499.854 41.8414 499.26L42.7482 499.681C42.4687 500.282 42.1809 500.884 41.885 501.486L40.9876 501.045ZM42.6553 497.457C42.9221 496.848 43.1801 496.241 43.4293 495.637L44.3539 496.018C44.1019 496.629 43.8409 497.243 43.5711 497.859L42.6553 497.457ZM44.1638 493.796C44.404 493.173 44.6346 492.554 44.8552 491.94L45.7964 492.278C45.573 492.9 45.3398 493.526 45.0967 494.156L44.1638 493.796ZM45.5017 490.069C45.7124 489.434 45.9121 488.805 46.1006 488.183L47.0575 488.473C46.8665 489.103 46.6642 489.74 46.4508 490.383L45.5017 490.069ZM46.6483 486.283C46.8253 485.635 46.9893 484.997 47.1401 484.37L48.1124 484.604C47.9591 485.241 47.7925 485.889 47.6129 486.547L46.6483 486.283ZM47.5695 482.443C47.6355 482.12 47.6977 481.802 47.756 481.487L48.7393 481.669C48.6798 481.99 48.6165 482.315 48.5493 482.643L47.5695 482.443ZM47.756 481.487C47.8156 481.164 47.875 480.841 47.9341 480.517L48.9179 480.697C48.8586 481.022 48.7991 481.346 48.7393 481.669L47.756 481.487ZM48.2858 478.561C48.4014 477.909 48.516 477.253 48.6296 476.593L49.6151 476.763C49.5012 477.424 49.3863 478.082 49.2704 478.735L48.2858 478.561ZM48.9618 474.638C49.0716 473.983 49.1805 473.325 49.2883 472.664L50.2753 472.825C50.1672 473.488 50.0581 474.147 49.9481 474.804L48.9618 474.638ZM49.6036 470.708C49.7076 470.054 49.8107 469.397 49.9129 468.737L50.9011 468.89C50.7987 469.551 50.6954 470.209 50.5912 470.865L49.6036 470.708ZM50.214 466.77C50.3128 466.116 50.4108 465.461 50.5078 464.802L51.4971 464.948C51.3999 465.608 51.3018 466.265 51.2028 466.919L50.214 466.77ZM50.7958 462.826C50.8899 462.173 50.9831 461.518 51.0756 460.861L52.0658 461C51.9733 461.658 51.8799 462.315 51.7856 462.969L50.7958 462.826ZM51.3504 458.884C51.4404 458.229 51.5296 457.572 51.6181 456.914L52.6092 457.047C52.5206 457.706 52.4312 458.364 52.3411 459.02L51.3504 458.884ZM51.8803 454.939C51.9666 454.282 52.0523 453.622 52.1371 452.962L53.1289 453.089C53.044 453.751 52.9583 454.411 52.8717 455.07L51.8803 454.939ZM52.3877 450.989C52.4705 450.33 52.5525 449.671 52.6338 449.01L53.6263 449.132C53.5449 449.794 53.4628 450.454 53.3799 451.114L52.3877 450.989ZM52.8741 447.035C52.9534 446.376 53.032 445.717 53.1098 445.057L54.1029 445.174C54.025 445.835 53.9463 446.495 53.867 447.154L52.8741 447.035ZM53.3407 443.077C53.4167 442.419 53.4921 441.759 53.5667 441.1L54.5604 441.212C54.4857 441.873 54.4102 442.533 54.3341 443.192L53.3407 443.077ZM53.7884 439.119C53.8615 438.46 53.9339 437.8 54.0056 437.14L54.9997 437.248C54.9279 437.908 54.8555 438.569 54.7823 439.23L53.7884 439.119ZM54.2184 435.159C54.2887 434.499 54.3583 433.839 54.4272 433.178L55.4218 433.282C55.3528 433.943 55.2832 434.604 55.2128 435.265L54.2184 435.159ZM54.632 431.196C54.6995 430.536 54.7664 429.876 54.8326 429.216L55.8276 429.316C55.7613 429.976 55.6944 430.637 55.6268 431.298L54.632 431.196ZM55.0296 427.232C55.0946 426.571 55.159 425.91 55.2227 425.25L56.2181 425.346C56.1543 426.007 56.0899 426.668 56.0248 427.33L55.0296 427.232ZM55.412 423.268C55.4747 422.605 55.5368 421.943 55.5981 421.282L56.5938 421.375C56.5324 422.036 56.4703 422.699 56.4076 423.362L55.412 423.268ZM55.7801 419.302C55.8405 418.638 55.9003 417.976 55.9593 417.314L56.9554 417.403C56.8963 418.065 56.8365 418.728 56.776 419.393L55.7801 419.302ZM56.1348 415.331C56.1928 414.668 56.2502 414.007 56.3069 413.348L57.3032 413.433C57.2465 414.094 57.1891 414.755 57.131 415.418L56.1348 415.331ZM56.4762 411.359C56.532 410.698 56.5871 410.039 56.6415 409.381L57.6381 409.463C57.5836 410.122 57.5285 410.782 57.4727 411.443L56.4762 411.359ZM56.8048 407.388C56.8586 406.725 56.9117 406.064 56.9642 405.405L57.961 405.485C57.9085 406.144 57.8553 406.806 57.8015 407.469L56.8048 407.388ZM57.1209 403.419C57.1729 402.753 57.2241 402.091 57.2747 401.43L58.2718 401.507C58.2212 402.167 58.1699 402.831 58.1179 403.497L57.1209 403.419ZM57.425 399.451C57.4752 398.783 57.5247 398.118 57.5735 397.455L58.5708 397.529C58.5219 398.192 58.4724 398.857 58.4221 399.526L57.425 399.451ZM57.7179 395.477C57.7662 394.809 57.8138 394.143 57.8607 393.481L58.8582 393.552C58.8113 394.215 58.7636 394.88 58.7153 395.55L57.7179 395.477ZM57.9999 391.498C58.0462 390.831 58.0919 390.168 58.1368 389.508L59.1345 389.576C59.0895 390.236 59.0439 390.9 58.9975 391.568L57.9999 391.498ZM58.2709 387.52C58.3153 386.854 58.359 386.193 58.402 385.536L59.3998 385.601C59.3568 386.259 59.3131 386.92 59.2687 387.586L58.2709 387.52ZM58.531 383.542C58.5736 382.877 58.6154 382.217 58.6565 381.563L59.6545 381.625C59.6134 382.28 59.5716 382.941 59.529 383.606L58.531 383.542ZM58.7806 379.563C58.8213 378.899 58.8613 378.241 58.9005 377.588L59.8987 377.648C59.8595 378.301 59.8195 378.96 59.7787 379.625L58.7806 379.563ZM59.0196 375.585C59.0587 374.92 59.0969 374.262 59.1343 373.611L60.1327 373.668C60.0952 374.32 60.057 374.979 60.0179 375.644L59.0196 375.585ZM59.2482 371.607C59.2856 370.94 59.3222 370.281 59.3579 369.629L60.3564 369.684C60.3206 370.336 60.284 370.995 60.2466 371.663L59.2482 371.607ZM59.4662 367.629C59.5021 366.958 59.5371 366.296 59.5711 365.644L60.5697 365.696C60.5357 366.349 60.5007 367.011 60.4648 367.682L59.4662 367.629ZM59.6735 363.655C59.7079 362.977 59.7412 362.311 59.7736 361.657L60.7723 361.707C60.74 362.361 60.7066 363.027 60.6722 363.705L59.6735 363.655ZM59.8694 359.691C59.9023 359.005 59.9341 358.333 59.9646 357.677L60.9635 357.724C60.933 358.38 60.9012 359.052 60.8682 359.739L59.8694 359.691ZM60.0558 355.688C60.0862 355.013 60.1152 354.357 60.1429 353.72L61.142 353.763C61.1143 354.401 61.0852 355.057 61.0548 355.733L60.0558 355.688ZM60.2286 351.713C60.2576 351.018 60.2849 350.351 60.3104 349.713L61.3096 349.753C61.2841 350.392 61.2568 351.059 61.2277 351.755L60.2286 351.713ZM60.3882 347.72C60.4007 347.389 60.4127 347.068 60.4241 346.758L61.4235 346.795C61.412 347.105 61.4 347.426 61.3874 347.758L60.3882 347.72ZM60.4265 346.725C60.4608 346.393 60.4946 346.062 60.5279 345.733L61.5229 345.833C61.4895 346.164 61.4556 346.495 61.4211 346.828L60.4265 346.725ZM60.7215 343.763C60.7847 343.103 60.8459 342.447 60.9054 341.795L61.9013 341.886C61.8417 342.54 61.7803 343.197 61.717 343.858L60.7215 343.763ZM61.0811 339.821C61.1385 339.161 61.1943 338.505 61.2487 337.852L62.2452 337.936C62.1908 338.589 62.1349 339.247 62.0774 339.908L61.0811 339.821ZM61.4102 335.876C61.4631 335.216 61.5148 334.559 61.5655 333.906L62.5625 333.984C62.5118 334.637 62.46 335.295 62.407 335.956L61.4102 335.876ZM61.717 331.929C61.767 331.267 61.8163 330.61 61.8649 329.957L62.8621 330.031C62.8135 330.684 62.7642 331.342 62.7141 332.005L61.717 331.929ZM62.0113 327.98C62.0602 327.317 62.1088 326.658 62.1572 326.004L63.1545 326.078C63.1061 326.732 63.0575 327.391 63.0085 328.054L62.0113 327.98ZM62.3043 324.031C62.3542 323.366 62.4043 322.706 62.4548 322.051L63.4518 322.128C63.4014 322.782 63.3514 323.441 63.3015 324.105L62.3043 324.031ZM62.6093 320.082C62.6627 319.415 62.7169 318.753 62.7721 318.097L63.7686 318.181C63.7135 318.836 63.6594 319.496 63.6061 320.162L62.6093 320.082ZM62.9425 316.131C63.0022 315.464 63.0634 314.802 63.1265 314.146L64.1219 314.242C64.0591 314.895 63.9981 315.555 63.9385 316.221L62.9425 316.131ZM63.3238 312.174C63.3931 311.51 63.4646 310.853 63.5389 310.202L64.5324 310.315C64.4586 310.963 64.3874 311.617 64.3184 312.278L63.3238 312.174ZM63.7759 308.224C63.859 307.563 63.9455 306.909 64.0358 306.263L65.0262 306.401C64.9366 307.043 64.8507 307.692 64.768 308.349L63.7759 308.224ZM64.3271 304.289C64.4304 303.626 64.5385 302.971 64.6516 302.324L65.6367 302.496C65.5246 303.136 65.4176 303.785 65.3151 304.443L64.3271 304.289ZM65.0133 300.375C65.1436 299.713 65.2801 299.061 65.4234 298.417L66.3995 298.634C66.2581 299.27 66.1232 299.914 65.9945 300.568L65.0133 300.375ZM65.8844 296.474C66.0489 295.823 66.2214 295.182 66.4026 294.551L67.3637 294.827C67.1856 295.447 67.0159 296.078 66.854 296.719L65.8844 296.474ZM66.9886 292.642C67.1992 291.999 67.4202 291.368 67.6525 290.748L68.5889 291.099C68.3618 291.705 68.1454 292.323 67.9389 292.953L66.9886 292.642ZM68.399 288.888C68.6651 288.269 68.9442 287.662 69.2373 287.068L70.134 287.511C69.8491 288.088 69.5773 288.679 69.3178 289.283L68.399 288.888ZM70.1763 285.296C70.5102 284.708 70.8599 284.135 71.2266 283.576L72.0627 284.125C71.7081 284.665 71.3694 285.22 71.0457 285.79L70.1763 285.296ZM72.3879 281.93C72.7941 281.395 73.2185 280.875 73.662 280.37L74.4132 281.03C73.9858 281.516 73.5766 282.018 73.1846 282.535L72.3879 281.93ZM75.0475 278.906C75.5252 278.437 76.0225 277.984 76.5402 277.547L77.1855 278.311C76.6867 278.732 76.2078 279.168 75.7478 279.62L75.0475 278.906ZM78.1289 276.302C78.6646 275.913 79.2198 275.539 79.7953 275.18L80.3248 276.028C79.7689 276.375 79.2331 276.736 78.7165 277.112L78.1289 276.302ZM81.5345 274.174C82.1172 273.862 82.7187 273.563 83.3396 273.278L83.7564 274.187C83.1538 274.464 82.5708 274.753 82.0067 275.055L81.5345 274.174ZM85.1951 272.492C85.8023 272.254 86.4265 272.028 87.0683 271.814L87.3846 272.763C86.7585 272.972 86.1504 273.192 85.5595 273.423L85.1951 272.492ZM88.986 271.225C89.6193 271.047 90.2685 270.878 90.9339 270.721L91.1643 271.694C90.5122 271.848 89.8768 272.013 89.2575 272.188L88.986 271.225ZM92.8707 270.301C93.5171 270.174 94.1779 270.055 94.8535 269.946L95.0129 270.934C94.3484 271.041 93.699 271.157 93.0642 271.282L92.8707 270.301ZM96.8136 269.661C97.463 269.577 98.1253 269.5 98.8006 269.432L98.9016 270.427C98.2353 270.494 97.5824 270.57 96.9426 270.653L96.8136 269.661ZM100.783 269.256C101.119 269.231 101.459 269.207 101.802 269.185L101.865 270.183C101.526 270.205 101.191 270.228 100.858 270.253L100.783 269.256ZM101.802 269.185C102.148 269.163 102.488 269.142 102.823 269.121L102.885 270.119C102.551 270.14 102.211 270.161 101.865 270.183L101.802 269.185ZM104.837 268.999C105.537 268.958 106.208 268.921 106.852 268.886L106.906 269.884C106.263 269.919 105.594 269.957 104.895 269.998L104.837 268.999ZM108.879 268.78C109.587 268.745 110.258 268.714 110.892 268.687L110.936 269.686C110.303 269.713 109.635 269.744 108.928 269.779L108.879 268.78ZM112.914 268.606C113.645 268.58 114.317 268.56 114.936 268.544L114.961 269.544C114.346 269.559 113.677 269.58 112.95 269.606L112.914 268.606ZM116.97 268.506C117.762 268.497 118.432 268.499 118.998 268.507L118.984 269.507C118.427 269.499 117.766 269.497 116.981 269.506L116.97 268.506ZM121.05 268.589C121.497 268.625 121.769 268.666 121.938 268.703C122.023 268.722 122.089 268.741 122.141 268.76C122.168 268.77 122.193 268.781 122.217 268.793C122.229 268.799 122.242 268.806 122.254 268.813C122.26 268.817 122.266 268.82 122.273 268.825C122.276 268.827 122.279 268.829 122.282 268.831C122.284 268.832 122.285 268.833 122.287 268.834C122.288 268.835 122.289 268.835 122.289 268.836C122.29 268.836 122.29 268.837 122.291 268.837C122.291 268.837 122.292 268.838 122 269.244C121.708 269.65 121.709 269.65 121.709 269.651C121.71 269.651 121.71 269.651 121.711 269.651C121.711 269.652 121.712 269.653 121.713 269.653C121.715 269.654 121.716 269.655 121.718 269.656C121.721 269.658 121.724 269.66 121.727 269.662C121.732 269.666 121.738 269.669 121.743 269.672C121.753 269.678 121.762 269.683 121.769 269.687C121.783 269.694 121.793 269.697 121.794 269.698C121.797 269.699 121.778 269.692 121.724 269.68C121.616 269.656 121.393 269.62 120.97 269.586L121.05 268.589Z" fill="#A9A9A9"/>
<path d="M751.354 268.652C751.549 268.847 751.549 269.164 751.354 269.359L748.172 272.541C747.976 272.736 747.66 272.736 747.464 272.541C747.269 272.346 747.269 272.029 747.464 271.834L750.293 269.006L747.464 266.177C747.269 265.982 747.269 265.665 747.464 265.47C747.66 265.275 747.976 265.275 748.172 265.47L751.354 268.652ZM630 268.506L631.008 268.506L631.008 269.506L630 269.506L630 268.506ZM633.025 268.506L635.042 268.506L635.042 269.506L633.025 269.506L633.025 268.506ZM637.058 268.506L639.075 268.506L639.075 269.506L637.058 269.506L637.058 268.506ZM641.092 268.506L643.108 268.506L643.108 269.506L641.092 269.506L641.092 268.506ZM645.125 268.506L647.142 268.506L647.142 269.506L645.125 269.506L645.125 268.506ZM649.158 268.506L651.175 268.506L651.175 269.506L649.158 269.506L649.158 268.506ZM653.192 268.506L655.208 268.506L655.208 269.506L653.192 269.506L653.192 268.506ZM657.225 268.506L659.242 268.506L659.242 269.506L657.225 269.506L657.225 268.506ZM661.258 268.506L663.275 268.506L663.275 269.506L661.258 269.506L661.258 268.506ZM665.292 268.506L667.308 268.506L667.308 269.506L665.292 269.506L665.292 268.506ZM669.325 268.506L671.342 268.506L671.342 269.506L669.325 269.506L669.325 268.506ZM673.358 268.506L675.375 268.506L675.375 269.506L673.358 269.506L673.358 268.506ZM677.392 268.506L679.408 268.506L679.408 269.506L677.392 269.506L677.392 268.506ZM681.425 268.506L683.442 268.506L683.442 269.506L681.425 269.506L681.425 268.506ZM685.458 268.506L687.475 268.506L687.475 269.506L685.458 269.506L685.458 268.506ZM689.492 268.506L691.508 268.506L691.508 269.506L689.492 269.506L689.492 268.506ZM693.525 268.506L695.542 268.506L695.542 269.506L693.525 269.506L693.525 268.506ZM697.558 268.506L699.575 268.506L699.575 269.506L697.558 269.506L697.558 268.506ZM701.592 268.506L703.608 268.506L703.608 269.506L701.592 269.506L701.592 268.506ZM705.625 268.506L707.642 268.506L707.642 269.506L705.625 269.506L705.625 268.506ZM709.658 268.506L711.675 268.506L711.675 269.506L709.658 269.506L709.658 268.506ZM713.692 268.506L715.708 268.506L715.708 269.506L713.692 269.506L713.692 268.506ZM717.725 268.506L719.742 268.506L719.742 269.506L717.725 269.506L717.725 268.506ZM721.758 268.506L723.775 268.506L723.775 269.506L721.758 269.506L721.758 268.506ZM725.792 268.506L727.808 268.506L727.808 269.506L725.792 269.506L725.792 268.506ZM729.825 268.506L731.842 268.506L731.842 269.506L729.825 269.506L729.825 268.506ZM733.858 268.506L735.875 268.506L735.875 269.506L733.858 269.506L733.858 268.506ZM737.892 268.506L739.908 268.506L739.908 269.506L737.892 269.506L737.892 268.506ZM741.925 268.506L743.942 268.506L743.942 269.506L741.925 269.506L741.925 268.506ZM745.958 268.506L747.975 268.506L747.975 269.506L745.958 269.506L745.958 268.506ZM749.992 268.506L751 268.506L751 269.506L749.992 269.506L749.992 268.506Z" fill="#A9A9A9"/>
<path d="M751.354 3.64645C751.549 3.84171 751.549 4.1583 751.354 4.35356L748.172 7.53551C747.976 7.73077 747.66 7.73077 747.464 7.5355C747.269 7.34024 747.269 7.02366 747.464 6.8284L750.293 3.99999L747.464 1.17154C747.269 0.97628 747.269 0.659697 747.464 0.464437C747.66 0.269176 747.976 0.269179 748.172 0.464443L751.354 3.64645ZM703.752 56.4224L704.244 56.5134L703.752 56.4224ZM691.076 191.224L691.576 191.242L691.575 191.259L691.574 191.275L691.076 191.224ZM650.167 268.316L650.135 267.817L650.167 268.316ZM751 4.5C750.671 4.5 750.343 4.50543 750.016 4.5162L749.983 3.51674C750.321 3.50561 750.66 3.5 751 3.5L751 4.5ZM748.065 4.64481C747.413 4.70937 746.767 4.79511 746.126 4.9012L745.963 3.91464C746.625 3.80502 747.293 3.71641 747.967 3.64968L748.065 4.64481ZM744.206 5.2834C743.569 5.43157 742.938 5.59978 742.313 5.7872L742.026 4.82933C742.671 4.63601 743.322 4.4624 743.98 4.3094L744.206 5.2834ZM740.454 6.40682C739.841 6.63177 739.235 6.87506 738.634 7.13588L738.236 6.21866C738.854 5.95032 739.478 5.69982 740.11 5.46808L740.454 6.40682ZM736.857 7.96737C736.273 8.26008 735.695 8.56922 735.124 8.89398L734.63 8.02467C735.216 7.69154 735.809 7.37417 736.408 7.07347L736.857 7.96737ZM733.439 9.90835C732.888 10.2586 732.343 10.6231 731.805 11.0013L731.23 10.1831C731.781 9.79626 732.338 9.42309 732.903 9.0644L733.439 9.90835ZM730.22 12.1675C729.702 12.5663 729.19 12.9776 728.684 13.4005L728.043 12.6335C728.558 12.2021 729.081 11.7823 729.61 11.3749L730.22 12.1675ZM727.197 14.6948C726.71 15.1344 726.231 15.5846 725.757 16.0447L725.06 15.3275C725.542 14.8593 726.031 14.4008 726.526 13.9529L727.197 14.6948ZM724.366 17.4442C723.911 17.9171 723.463 18.3989 723.021 18.8889L722.279 18.2194C722.727 17.7216 723.183 17.232 723.645 16.7511L724.366 17.4442ZM721.722 20.3762C721.297 20.8779 720.878 21.3869 720.466 21.9024L719.685 21.2782C720.103 20.7553 720.527 20.2388 720.959 19.7296L721.722 20.3762ZM719.253 23.4641C718.857 23.9898 718.467 24.5213 718.083 25.0579L717.269 24.4767C717.658 23.9331 718.053 23.3945 718.455 22.8617L719.253 23.4641ZM716.954 26.6821C716.585 27.2287 716.222 27.7797 715.866 28.3345L715.024 27.7945C715.384 27.233 715.752 26.6752 716.126 26.1217L716.954 26.6821ZM714.817 30.0125C714.474 30.5769 714.137 31.1443 713.808 31.714L712.943 31.2139C713.275 30.6377 713.615 30.0637 713.963 29.4927L714.817 30.0125ZM712.838 33.4397C712.52 34.0209 712.209 34.6037 711.906 35.1874L711.018 34.7266C711.325 34.1364 711.639 33.547 711.961 32.9592L712.838 33.4397ZM711.012 36.9548C710.72 37.5502 710.435 38.1457 710.159 38.7404L709.252 38.319C709.531 37.7176 709.819 37.1156 710.115 36.5136L711.012 36.9548ZM709.345 40.5429C709.078 41.1515 708.82 41.7586 708.571 42.3632L707.646 41.9821C707.898 41.3707 708.159 40.7568 708.429 40.1414L709.345 40.5429ZM707.836 44.204C707.596 44.8267 707.365 45.4457 707.145 46.0602L706.204 45.7222C706.427 45.1003 706.66 44.4739 706.903 43.844L707.836 44.204ZM706.498 47.9314C706.288 48.5665 706.088 49.1954 705.899 49.817L704.942 49.5268C705.134 48.8968 705.336 48.2597 705.549 47.6165L706.498 47.9314ZM705.352 51.7167C705.175 52.3648 705.011 53.0031 704.86 53.6303L703.888 53.3964C704.041 52.7591 704.207 52.1109 704.387 51.4533L705.352 51.7167ZM704.43 55.5571C704.364 55.8796 704.302 56.1984 704.244 56.5134L703.261 56.3314C703.32 56.0101 703.384 55.6851 703.451 55.3567L704.43 55.5571ZM704.244 56.5134C704.184 56.8356 704.125 57.1588 704.066 57.4829L703.082 57.3034C703.141 56.9785 703.201 56.6545 703.261 56.3314L704.244 56.5134ZM703.714 59.439C703.599 60.0913 703.484 60.7473 703.37 61.4068L702.385 61.237C702.499 60.576 702.614 59.9185 702.73 59.2645L703.714 59.439ZM703.038 63.3617C702.928 64.0166 702.82 64.6746 702.712 65.3357L701.725 65.1746C701.833 64.5121 701.942 63.8527 702.052 63.1963L703.038 63.3617ZM702.396 67.2924C702.292 67.9465 702.189 68.6033 702.087 69.2627L701.099 69.1096C701.201 68.4489 701.305 67.7907 701.409 67.1353L702.396 67.2924ZM701.786 71.2301C701.687 71.8836 701.589 72.5395 701.492 73.1976L700.503 73.0516C700.6 72.3924 700.698 71.7353 700.797 71.0806L701.786 71.2301ZM701.204 75.1736C701.11 75.8269 701.017 76.4821 700.924 77.1392L699.934 76.9999C700.027 76.3418 700.12 75.6854 700.214 75.0311L701.204 75.1736ZM700.65 79.116C700.56 79.7712 700.47 80.4281 700.382 81.0865L699.391 80.9534C699.479 80.2939 699.569 79.636 699.659 78.9798L700.65 79.116ZM700.12 83.0605C700.033 83.7184 699.948 84.3776 699.863 85.0381L698.871 84.9107C698.956 84.2493 699.042 83.5891 699.128 82.9303L700.12 83.0605ZM699.612 87.0108C699.529 87.6695 699.447 88.3293 699.366 88.9901L698.374 88.868C698.455 88.2064 698.537 87.5457 698.62 86.8861L699.612 87.0108ZM699.126 90.9653C699.047 91.6238 698.968 92.2831 698.89 92.9431L697.897 92.826C697.975 92.1652 698.054 91.5051 698.133 90.8458L699.126 90.9653ZM698.659 94.9226C698.583 95.5813 698.508 96.2406 698.433 96.9003L697.44 96.7879C697.514 96.1275 697.59 95.4674 697.666 94.8079L698.659 94.9226ZM698.212 98.8806C698.139 99.5403 698.066 100.2 697.994 100.86L697 100.752C697.072 100.092 697.145 99.4309 697.218 98.7705L698.212 98.8806ZM697.782 102.841C697.711 103.501 697.642 104.161 697.573 104.822L696.578 104.718C696.647 104.057 696.717 103.396 696.787 102.735L697.782 102.841ZM697.368 106.804C697.3 107.464 697.234 108.124 697.167 108.784L696.172 108.684C696.239 108.024 696.306 107.363 696.373 106.702L697.368 106.804ZM696.97 110.768C696.905 111.429 696.841 112.09 696.777 112.75L695.782 112.654C695.846 111.993 695.91 111.332 695.975 110.67L696.97 110.768ZM696.588 114.732C696.525 115.395 696.463 116.057 696.402 116.718L695.406 116.625C695.468 115.964 695.53 115.301 695.592 114.638L696.588 114.732ZM696.22 118.698C696.159 119.362 696.1 120.024 696.041 120.686L695.045 120.597C695.104 119.935 695.164 119.272 695.224 118.607L696.22 118.698ZM695.865 122.669C695.807 123.332 695.75 123.993 695.693 124.652L694.697 124.567C694.754 123.906 694.811 123.245 694.869 122.582L695.865 122.669ZM695.524 126.641C695.468 127.302 695.413 127.961 695.359 128.619L694.362 128.537C694.416 127.878 694.472 127.218 694.527 126.557L695.524 126.641ZM695.195 130.612C695.141 131.275 695.088 131.936 695.036 132.595L694.039 132.515C694.091 131.856 694.145 131.194 694.199 130.531L695.195 130.612ZM694.879 134.581C694.827 135.247 694.776 135.909 694.725 136.57L693.728 136.493C693.779 135.833 693.83 135.169 693.882 134.503L694.879 134.581ZM694.575 138.549C694.525 139.217 694.475 139.882 694.427 140.545L693.429 140.471C693.478 139.808 693.528 139.143 693.578 138.474L694.575 138.549ZM694.282 142.523C694.234 143.191 694.186 143.857 694.139 144.519L693.142 144.448C693.189 143.785 693.236 143.12 693.285 142.45L694.282 142.523ZM694 146.502C693.954 147.169 693.908 147.832 693.863 148.492L692.866 148.424C692.91 147.764 692.956 147.1 693.003 146.432L694 146.502ZM693.729 150.48C693.685 151.146 693.641 151.807 693.598 152.464L692.6 152.399C692.643 151.741 692.687 151.08 692.731 150.414L693.729 150.48ZM693.469 154.458C693.426 155.123 693.385 155.783 693.344 156.437L692.345 156.375C692.387 155.72 692.428 155.059 692.471 154.394L693.469 154.458ZM693.219 158.437C693.179 159.101 693.139 159.759 693.099 160.412L692.101 160.352C692.14 159.699 692.181 159.04 692.221 158.375L693.219 158.437ZM692.98 162.415C692.941 163.08 692.903 163.738 692.866 164.389L691.867 164.332C691.905 163.68 691.943 163.021 691.982 162.356L692.98 162.415ZM692.752 166.393C692.714 167.06 692.678 167.719 692.642 168.371L691.644 168.316C691.679 167.664 691.716 167.005 691.753 166.337L692.752 166.393ZM692.534 170.371C692.498 171.042 692.463 171.704 692.429 172.356L691.43 172.304C691.464 171.651 691.499 170.989 691.535 170.318L692.534 170.371ZM692.327 174.345C692.292 175.023 692.259 175.689 692.226 176.343L691.228 176.293C691.26 175.639 691.293 174.973 691.328 174.295L692.327 174.345ZM692.131 178.309C692.098 178.995 692.066 179.667 692.035 180.323L691.036 180.276C691.067 179.62 691.099 178.948 691.132 178.261L692.131 178.309ZM691.944 182.312C691.914 182.987 691.885 183.643 691.857 184.28L690.858 184.237C690.886 183.599 690.915 182.943 690.945 182.267L691.944 182.312ZM691.771 186.287C691.742 186.982 691.715 187.649 691.69 188.287L690.69 188.247C690.716 187.608 690.743 186.941 690.772 186.245L691.771 186.287ZM691.612 190.28C691.599 190.611 691.587 190.932 691.576 191.242L690.577 191.205C690.588 190.895 690.6 190.574 690.613 190.242L691.612 190.28ZM691.574 191.275C691.539 191.607 691.505 191.938 691.472 192.267L690.477 192.167C690.511 191.836 690.544 191.505 690.579 191.172L691.574 191.275ZM691.278 194.237C691.215 194.897 691.154 195.553 691.095 196.205L690.099 196.114C690.158 195.46 690.22 194.803 690.283 194.142L691.278 194.237ZM690.919 198.179C690.861 198.839 690.806 199.495 690.751 200.148L689.755 200.064C689.809 199.411 689.865 198.753 689.923 198.092L690.919 198.179ZM690.59 202.124C690.537 202.784 690.485 203.441 690.434 204.094L689.437 204.016C689.488 203.363 689.54 202.705 689.593 202.044L690.59 202.124ZM690.283 206.071C690.233 206.733 690.184 207.39 690.135 208.043L689.138 207.969C689.187 207.316 689.236 206.658 689.286 205.995L690.283 206.071ZM689.989 210.02C689.94 210.683 689.891 211.342 689.843 211.996L688.846 211.922C688.894 211.268 688.942 210.609 688.991 209.946L689.989 210.02ZM689.696 213.969C689.646 214.634 689.596 215.294 689.545 215.949L688.548 215.872C688.599 215.218 688.649 214.559 688.699 213.895L689.696 213.969ZM689.391 217.918C689.337 218.585 689.283 219.247 689.228 219.903L688.231 219.819C688.287 219.164 688.341 218.504 688.394 217.838L689.391 217.918ZM689.057 221.869C688.998 222.536 688.937 223.198 688.874 223.854L687.878 223.758C687.941 223.105 688.002 222.445 688.061 221.779L689.057 221.869ZM688.676 225.826C688.607 226.49 688.535 227.147 688.461 227.798L687.468 227.685C687.541 227.037 687.613 226.383 687.682 225.722L688.676 225.826ZM688.224 229.776C688.141 230.437 688.054 231.091 687.964 231.737L686.974 231.599C687.063 230.957 687.149 230.308 687.232 229.651L688.224 229.776ZM687.673 233.711C687.57 234.374 687.462 235.029 687.348 235.676L686.363 235.504C686.475 234.864 686.582 234.215 686.685 233.557L687.673 233.711ZM686.987 237.625C686.856 238.287 686.72 238.939 686.577 239.583L685.601 239.366C685.742 238.73 685.877 238.086 686.006 237.432L686.987 237.625ZM686.116 241.526C685.951 242.177 685.779 242.818 685.597 243.449L684.636 243.173C684.814 242.553 684.984 241.922 685.146 241.281L686.116 241.526ZM685.011 245.358C684.801 246.001 684.58 246.632 684.348 247.252L683.411 246.901C683.638 246.295 683.855 245.677 684.061 245.047L685.011 245.358ZM683.601 249.112C683.335 249.731 683.056 250.338 682.763 250.932L681.866 250.489C682.151 249.912 682.423 249.321 682.682 248.717L683.601 249.112ZM681.824 252.704C681.49 253.292 681.14 253.865 680.773 254.424L679.937 253.875C680.292 253.335 680.631 252.78 680.954 252.21L681.824 252.704ZM679.612 256.07C679.206 256.605 678.782 257.125 678.338 257.63L677.587 256.97C678.014 256.484 678.423 255.982 678.815 255.465L679.612 256.07ZM676.952 259.094C676.475 259.563 675.978 260.016 675.46 260.453L674.815 259.689C675.313 259.268 675.792 258.832 676.252 258.38L676.952 259.094ZM673.871 261.698C673.335 262.087 672.78 262.461 672.205 262.82L671.675 261.972C672.231 261.625 672.767 261.264 673.283 260.888L673.871 261.698ZM670.465 263.826C669.883 264.138 669.281 264.437 668.66 264.722L668.244 263.813C668.846 263.536 669.429 263.247 669.993 262.945L670.465 263.826ZM666.805 265.508C666.198 265.746 665.573 265.972 664.932 266.186L664.615 265.237C665.241 265.028 665.85 264.808 666.44 264.577L666.805 265.508ZM663.014 266.775C662.381 266.953 661.732 267.122 661.066 267.279L660.836 266.306C661.488 266.152 662.123 265.987 662.742 265.812L663.014 266.775ZM659.129 267.699C658.483 267.826 657.822 267.945 657.147 268.054L656.987 267.066C657.652 266.959 658.301 266.843 658.936 266.718L659.129 267.699ZM655.186 268.339C654.537 268.423 653.875 268.5 653.199 268.568L653.098 267.573C653.765 267.506 654.418 267.43 655.057 267.347L655.186 268.339ZM651.217 268.744C650.881 268.769 650.541 268.793 650.198 268.815L650.135 267.817C650.474 267.795 650.809 267.772 651.142 267.747L651.217 268.744ZM650.198 268.815C649.852 268.837 649.512 268.858 649.177 268.879L649.115 267.881C649.449 267.86 649.789 267.839 650.135 267.817L650.198 268.815ZM647.163 269.001C646.463 269.042 645.792 269.079 645.148 269.114L645.094 268.116C645.737 268.081 646.406 268.043 647.105 268.002L647.163 269.001ZM643.121 269.22C642.413 269.255 641.742 269.286 641.108 269.313L641.064 268.314C641.697 268.287 642.365 268.256 643.072 268.221L643.121 269.22ZM639.086 269.394C638.355 269.42 637.683 269.44 637.064 269.456L637.039 268.456C637.654 268.441 638.323 268.42 639.05 268.394L639.086 269.394ZM635.03 269.494C634.238 269.503 633.568 269.501 633.002 269.493L633.016 268.493C633.573 268.501 634.234 268.503 635.019 268.494L635.03 269.494ZM630.95 269.411C630.503 269.375 630.231 269.334 630.062 269.297C629.977 269.278 629.911 269.259 629.859 269.24C629.832 269.23 629.807 269.219 629.783 269.207C629.771 269.201 629.758 269.194 629.746 269.187C629.74 269.183 629.734 269.18 629.727 269.175C629.724 269.173 629.721 269.171 629.718 269.169C629.716 269.168 629.715 269.167 629.713 269.166C629.712 269.165 629.711 269.165 629.711 269.164C629.71 269.164 629.71 269.163 629.709 269.163C629.709 269.163 629.708 269.162 630 268.756C630.292 268.35 630.291 268.35 630.291 268.349C630.29 268.349 630.29 268.349 630.289 268.349C630.289 268.348 630.288 268.347 630.287 268.347C630.285 268.346 630.284 268.345 630.282 268.344C630.279 268.342 630.276 268.34 630.273 268.338C630.268 268.334 630.262 268.331 630.257 268.328C630.247 268.322 630.238 268.317 630.231 268.313C630.217 268.306 630.207 268.303 630.206 268.302C630.203 268.301 630.222 268.308 630.276 268.32C630.384 268.344 630.607 268.38 631.03 268.414L630.95 269.411Z" fill="#A9A9A9"/>
<path d="M751.354 534.354C751.549 534.158 751.549 533.842 751.354 533.646L748.172 530.464C747.976 530.269 747.66 530.269 747.464 530.464C747.269 530.66 747.269 530.976 747.464 531.172L750.293 534L747.464 536.828C747.269 537.024 747.269 537.34 747.464 537.536C747.66 537.731 747.976 537.731 748.172 537.536L751.354 534.354ZM703.752 481.578L703.261 481.669L703.752 481.578ZM691.076 346.776L691.576 346.758L691.575 346.741L691.574 346.725L691.076 346.776ZM650.167 269.684L650.135 270.183L650.167 269.684ZM751 533.5C750.671 533.5 750.343 533.495 750.016 533.484L749.983 534.483C750.321 534.494 750.66 534.5 751 534.5L751 533.5ZM748.065 533.355C747.413 533.291 746.767 533.205 746.126 533.099L745.963 534.085C746.625 534.195 747.293 534.284 747.967 534.35L748.065 533.355ZM744.206 532.717C743.569 532.568 742.938 532.4 742.313 532.213L742.026 533.171C742.671 533.364 743.322 533.538 743.98 533.691L744.206 532.717ZM740.454 531.593C739.841 531.368 739.235 531.125 738.634 530.864L738.236 531.781C738.854 532.05 739.478 532.3 740.11 532.532L740.454 531.593ZM736.857 530.033C736.273 529.74 735.695 529.431 735.124 529.106L734.63 529.975C735.216 530.308 735.809 530.626 736.408 530.927L736.857 530.033ZM733.439 528.092C732.888 527.741 732.343 527.377 731.805 526.999L731.23 527.817C731.781 528.204 732.338 528.577 732.903 528.936L733.439 528.092ZM730.22 525.833C729.702 525.434 729.19 525.022 728.684 524.599L728.043 525.366C728.558 525.798 729.081 526.218 729.61 526.625L730.22 525.833ZM727.197 523.305C726.71 522.866 726.231 522.415 725.757 521.955L725.06 522.672C725.542 523.141 726.031 523.599 726.526 524.047L727.197 523.305ZM724.366 520.556C723.911 520.083 723.463 519.601 723.021 519.111L722.279 519.781C722.727 520.278 723.183 520.768 723.645 521.249L724.366 520.556ZM721.722 517.624C721.297 517.122 720.878 516.613 720.466 516.098L719.685 516.722C720.103 517.245 720.527 517.761 720.959 518.27L721.722 517.624ZM719.253 514.536C718.857 514.01 718.467 513.479 718.083 512.942L717.269 513.523C717.658 514.067 718.053 514.605 718.455 515.138L719.253 514.536ZM716.954 511.318C716.585 510.771 716.222 510.22 715.866 509.666L715.024 510.205C715.384 510.767 715.752 511.325 716.126 511.878L716.954 511.318ZM714.817 507.987C714.474 507.423 714.137 506.856 713.808 506.286L712.943 506.786C713.275 507.362 713.615 507.936 713.963 508.507L714.817 507.987ZM712.838 504.56C712.52 503.979 712.209 503.396 711.906 502.813L711.018 503.273C711.325 503.864 711.639 504.453 711.961 505.041L712.838 504.56ZM711.012 501.045C710.72 500.45 710.435 499.854 710.159 499.26L709.252 499.681C709.531 500.282 709.819 500.884 710.115 501.486L711.012 501.045ZM709.345 497.457C709.078 496.848 708.82 496.241 708.571 495.637L707.646 496.018C707.898 496.629 708.159 497.243 708.429 497.859L709.345 497.457ZM707.836 493.796C707.596 493.173 707.365 492.554 707.145 491.94L706.204 492.278C706.427 492.9 706.66 493.526 706.903 494.156L707.836 493.796ZM706.498 490.069C706.288 489.434 706.088 488.805 705.899 488.183L704.942 488.473C705.134 489.103 705.336 489.74 705.549 490.383L706.498 490.069ZM705.352 486.283C705.175 485.635 705.011 484.997 704.86 484.37L703.888 484.604C704.041 485.241 704.207 485.889 704.387 486.547L705.352 486.283ZM704.43 482.443C704.364 482.12 704.302 481.802 704.244 481.487L703.261 481.669C703.32 481.99 703.384 482.315 703.451 482.643L704.43 482.443ZM704.244 481.487C704.184 481.164 704.125 480.841 704.066 480.517L703.082 480.697C703.141 481.022 703.201 481.346 703.261 481.669L704.244 481.487ZM703.714 478.561C703.599 477.909 703.484 477.253 703.37 476.593L702.385 476.763C702.499 477.424 702.614 478.082 702.73 478.735L703.714 478.561ZM703.038 474.638C702.928 473.983 702.82 473.325 702.712 472.664L701.725 472.825C701.833 473.488 701.942 474.147 702.052 474.804L703.038 474.638ZM702.396 470.708C702.292 470.054 702.189 469.397 702.087 468.737L701.099 468.89C701.201 469.551 701.305 470.209 701.409 470.865L702.396 470.708ZM701.786 466.77C701.687 466.116 701.589 465.461 701.492 464.802L700.503 464.948C700.6 465.608 700.698 466.265 700.797 466.919L701.786 466.77ZM701.204 462.826C701.11 462.173 701.017 461.518 700.924 460.861L699.934 461C700.027 461.658 700.12 462.315 700.214 462.969L701.204 462.826ZM700.65 458.884C700.56 458.229 700.47 457.572 700.382 456.914L699.391 457.047C699.479 457.706 699.569 458.364 699.659 459.02L700.65 458.884ZM700.12 454.939C700.033 454.282 699.948 453.622 699.863 452.962L698.871 453.089C698.956 453.751 699.042 454.411 699.128 455.07L700.12 454.939ZM699.612 450.989C699.529 450.33 699.447 449.671 699.366 449.01L698.374 449.132C698.455 449.794 698.537 450.454 698.62 451.114L699.612 450.989ZM699.126 447.035C699.047 446.376 698.968 445.717 698.89 445.057L697.897 445.174C697.975 445.835 698.054 446.495 698.133 447.154L699.126 447.035ZM698.659 443.077C698.583 442.419 698.508 441.759 698.433 441.1L697.44 441.212C697.514 441.873 697.59 442.533 697.666 443.192L698.659 443.077ZM698.212 439.119C698.139 438.46 698.066 437.8 697.994 437.14L697 437.248C697.072 437.908 697.145 438.569 697.218 439.23L698.212 439.119ZM697.782 435.159C697.711 434.499 697.642 433.839 697.573 433.178L696.578 433.282C696.647 433.943 696.717 434.604 696.787 435.265L697.782 435.159ZM697.368 431.196C697.3 430.536 697.234 429.876 697.167 429.216L696.172 429.316C696.239 429.976 696.306 430.637 696.373 431.298L697.368 431.196ZM696.97 427.232C696.905 426.571 696.841 425.91 696.777 425.25L695.782 425.346C695.846 426.007 695.91 426.668 695.975 427.33L696.97 427.232ZM696.588 423.268C696.525 422.605 696.463 421.943 696.402 421.282L695.406 421.375C695.468 422.036 695.53 422.699 695.592 423.362L696.588 423.268ZM696.22 419.302C696.159 418.638 696.1 417.976 696.041 417.314L695.045 417.403C695.104 418.065 695.164 418.728 695.224 419.393L696.22 419.302ZM695.865 415.331C695.807 414.668 695.75 414.007 695.693 413.348L694.697 413.433C694.754 414.094 694.811 414.755 694.869 415.418L695.865 415.331ZM695.524 411.359C695.468 410.698 695.413 410.039 695.359 409.381L694.362 409.463C694.416 410.122 694.472 410.782 694.527 411.443L695.524 411.359ZM695.195 407.388C695.141 406.725 695.088 406.064 695.036 405.405L694.039 405.485C694.091 406.144 694.145 406.806 694.199 407.469L695.195 407.388ZM694.879 403.419C694.827 402.753 694.776 402.091 694.725 401.43L693.728 401.507C693.779 402.167 693.83 402.831 693.882 403.497L694.879 403.419ZM694.575 399.451C694.525 398.783 694.475 398.118 694.427 397.455L693.429 397.529C693.478 398.192 693.528 398.857 693.578 399.526L694.575 399.451ZM694.282 395.477C694.234 394.809 694.186 394.143 694.139 393.481L693.142 393.552C693.189 394.215 693.236 394.88 693.285 395.55L694.282 395.477ZM694 391.498C693.954 390.831 693.908 390.168 693.863 389.508L692.866 389.576C692.91 390.236 692.956 390.9 693.003 391.568L694 391.498ZM693.729 387.52C693.685 386.854 693.641 386.193 693.598 385.536L692.6 385.601C692.643 386.259 692.687 386.92 692.731 387.586L693.729 387.52ZM693.469 383.542C693.426 382.877 693.385 382.217 693.344 381.563L692.345 381.625C692.387 382.28 692.428 382.941 692.471 383.606L693.469 383.542ZM693.219 379.563C693.179 378.899 693.139 378.241 693.099 377.588L692.101 377.648C692.14 378.301 692.181 378.96 692.221 379.625L693.219 379.563ZM692.98 375.585C692.941 374.92 692.903 374.262 692.866 373.611L691.867 373.668C691.905 374.32 691.943 374.979 691.982 375.644L692.98 375.585ZM692.752 371.607C692.714 370.94 692.678 370.281 692.642 369.629L691.644 369.684C691.679 370.336 691.716 370.995 691.753 371.663L692.752 371.607ZM692.534 367.629C692.498 366.958 692.463 366.296 692.429 365.644L691.43 365.696C691.464 366.349 691.499 367.011 691.535 367.682L692.534 367.629ZM692.327 363.655C692.292 362.977 692.259 362.311 692.226 361.657L691.228 361.707C691.26 362.361 691.293 363.027 691.328 363.705L692.327 363.655ZM692.131 359.691C692.098 359.005 692.066 358.333 692.035 357.677L691.036 357.724C691.067 358.38 691.099 359.052 691.132 359.739L692.131 359.691ZM691.944 355.688C691.914 355.013 691.885 354.357 691.857 353.72L690.858 353.763C690.886 354.401 690.915 355.057 690.945 355.733L691.944 355.688ZM691.771 351.713C691.742 351.018 691.715 350.351 691.69 349.713L690.69 349.753C690.716 350.392 690.743 351.059 690.772 351.755L691.771 351.713ZM691.612 347.72C691.599 347.389 691.587 347.068 691.576 346.758L690.577 346.795C690.588 347.105 690.6 347.426 690.613 347.758L691.612 347.72ZM691.574 346.725C691.539 346.393 691.505 346.062 691.472 345.733L690.477 345.833C690.511 346.164 690.544 346.495 690.579 346.828L691.574 346.725ZM691.278 343.763C691.215 343.103 691.154 342.447 691.095 341.795L690.099 341.886C690.158 342.54 690.22 343.197 690.283 343.858L691.278 343.763ZM690.919 339.821C690.861 339.161 690.806 338.505 690.751 337.852L689.755 337.936C689.809 338.589 689.865 339.247 689.923 339.908L690.919 339.821ZM690.59 335.876C690.537 335.216 690.485 334.559 690.434 333.906L689.437 333.984C689.488 334.637 689.54 335.295 689.593 335.956L690.59 335.876ZM690.283 331.929C690.233 331.267 690.184 330.61 690.135 329.957L689.138 330.031C689.187 330.684 689.236 331.342 689.286 332.005L690.283 331.929ZM689.989 327.98C689.94 327.317 689.891 326.658 689.843 326.004L688.846 326.078C688.894 326.732 688.942 327.391 688.991 328.054L689.989 327.98ZM689.696 324.031C689.646 323.366 689.596 322.706 689.545 322.051L688.548 322.128C688.599 322.782 688.649 323.441 688.699 324.105L689.696 324.031ZM689.391 320.082C689.337 319.415 689.283 318.753 689.228 318.097L688.231 318.181C688.287 318.836 688.341 319.496 688.394 320.162L689.391 320.082ZM689.057 316.131C688.998 315.464 688.937 314.802 688.874 314.146L687.878 314.242C687.941 314.895 688.002 315.555 688.061 316.221L689.057 316.131ZM688.676 312.174C688.607 311.51 688.535 310.853 688.461 310.202L687.468 310.315C687.541 310.963 687.613 311.617 687.682 312.278L688.676 312.174ZM688.224 308.224C688.141 307.563 688.054 306.909 687.964 306.263L686.974 306.401C687.063 307.043 687.149 307.692 687.232 308.349L688.224 308.224ZM687.673 304.289C687.57 303.626 687.462 302.971 687.348 302.324L686.363 302.496C686.475 303.136 686.582 303.785 686.685 304.443L687.673 304.289ZM686.987 300.375C686.856 299.713 686.72 299.061 686.577 298.417L685.601 298.634C685.742 299.27 685.877 299.914 686.006 300.568L686.987 300.375ZM686.116 296.474C685.951 295.823 685.779 295.182 685.597 294.551L684.636 294.827C684.814 295.447 684.984 296.078 685.146 296.719L686.116 296.474ZM685.011 292.642C684.801 291.999 684.58 291.368 684.348 290.748L683.411 291.099C683.638 291.705 683.855 292.323 684.061 292.953L685.011 292.642ZM683.601 288.888C683.335 288.269 683.056 287.662 682.763 287.068L681.866 287.511C682.151 288.088 682.423 288.679 682.682 289.283L683.601 288.888ZM681.824 285.296C681.49 284.708 681.14 284.135 680.773 283.576L679.937 284.125C680.292 284.665 680.631 285.22 680.954 285.79L681.824 285.296ZM679.612 281.93C679.206 281.395 678.782 280.875 678.338 280.37L677.587 281.03C678.014 281.516 678.423 282.018 678.815 282.535L679.612 281.93ZM676.952 278.906C676.475 278.437 675.978 277.984 675.46 277.547L674.815 278.311C675.313 278.732 675.792 279.168 676.252 279.62L676.952 278.906ZM673.871 276.302C673.335 275.913 672.78 275.539 672.205 275.18L671.675 276.028C672.231 276.375 672.767 276.736 673.283 277.112L673.871 276.302ZM670.465 274.174C669.883 273.862 669.281 273.563 668.66 273.278L668.244 274.187C668.846 274.464 669.429 274.753 669.993 275.055L670.465 274.174ZM666.805 272.492C666.198 272.254 665.573 272.028 664.932 271.814L664.615 272.763C665.241 272.972 665.85 273.192 666.44 273.423L666.805 272.492ZM663.014 271.225C662.381 271.047 661.732 270.878 661.066 270.721L660.836 271.694C661.488 271.848 662.123 272.013 662.742 272.188L663.014 271.225ZM659.129 270.301C658.483 270.174 657.822 270.055 657.147 269.946L656.987 270.934C657.652 271.041 658.301 271.157 658.936 271.282L659.129 270.301ZM655.186 269.661C654.537 269.577 653.875 269.5 653.199 269.432L653.098 270.427C653.765 270.494 654.418 270.57 655.057 270.653L655.186 269.661ZM651.217 269.256C650.881 269.231 650.541 269.207 650.198 269.185L650.135 270.183C650.474 270.205 650.809 270.228 651.142 270.253L651.217 269.256ZM650.198 269.185C649.852 269.163 649.512 269.142 649.177 269.121L649.115 270.119C649.449 270.14 649.789 270.161 650.135 270.183L650.198 269.185ZM647.163 268.999C646.463 268.958 645.792 268.921 645.148 268.886L645.094 269.884C645.737 269.919 646.406 269.957 647.105 269.998L647.163 268.999ZM643.121 268.78C642.413 268.745 641.742 268.714 641.108 268.687L641.064 269.686C641.697 269.713 642.365 269.744 643.072 269.779L643.121 268.78ZM639.086 268.606C638.355 268.58 637.683 268.56 637.064 268.544L637.039 269.544C637.654 269.559 638.323 269.58 639.05 269.606L639.086 268.606ZM635.03 268.506C634.238 268.497 633.568 268.499 633.002 268.507L633.016 269.507C633.573 269.499 634.234 269.497 635.019 269.506L635.03 268.506ZM630.95 268.589C630.503 268.625 630.231 268.666 630.062 268.703C629.977 268.722 629.911 268.741 629.859 268.76C629.832 268.77 629.807 268.781 629.783 268.793C629.771 268.799 629.758 268.806 629.746 268.813C629.74 268.817 629.734 268.82 629.727 268.825C629.724 268.827 629.721 268.829 629.718 268.831C629.716 268.832 629.715 268.833 629.713 268.834C629.712 268.835 629.711 268.835 629.711 268.836C629.71 268.836 629.71 268.837 629.709 268.837C629.709 268.837 629.708 268.838 630 269.244C630.292 269.65 630.291 269.65 630.291 269.651C630.29 269.651 630.29 269.651 630.289 269.651C630.289 269.652 630.288 269.653 630.287 269.653C630.285 269.654 630.284 269.655 630.282 269.656C630.279 269.658 630.276 269.66 630.273 269.662C630.268 269.666 630.262 269.669 630.257 269.672C630.247 269.678 630.238 269.683 630.231 269.687C630.217 269.694 630.207 269.697 630.206 269.698C630.203 269.699 630.222 269.692 630.276 269.68C630.384 269.656 630.607 269.62 631.03 269.586L630.95 268.589Z" fill="#A9A9A9"/>
</svg>
