<svg width="34" height="34" viewBox="0 0 34 34" fill="none" xmlns="http://www.w3.org/2000/svg">
<path fill-rule="evenodd" clip-rule="evenodd" d="M17 0C14.1087 0 11.2855 0.264444 8.58059 0.566667C6.52505 0.803276 4.61045 1.7298 3.14942 3.19494C1.6884 4.66008 0.767269 6.57728 0.536444 8.63348C0.246815 11.3258 0 14.1289 0 17C0 19.8711 0.246815 22.6742 0.536444 25.3665C0.767269 27.4227 1.6884 29.3399 3.14942 30.8051C4.61045 32.2702 6.52505 33.1967 8.58059 33.4333C11.2855 33.7356 14.1087 34 17 34C19.8913 34 22.7145 33.7356 25.4194 33.4333C27.475 33.1967 29.3895 32.2702 30.8506 30.8051C32.3116 29.3399 33.2327 27.4227 33.4636 25.3665C33.7532 22.6742 34 19.8711 34 17C34 14.1289 33.7532 11.3258 33.4636 8.63348C33.2327 6.57728 32.3116 4.66008 30.8506 3.19494C29.3895 1.7298 27.475 0.803276 25.4194 0.566667C22.7145 0.264444 19.8913 0 17 0Z" fill="#4F9FD7"/>
<path fill-rule="evenodd" clip-rule="evenodd" d="M24.4625 9.64586C24.6015 9.79897 24.7089 9.97796 24.7787 10.1726C24.8484 10.3672 24.8791 10.5737 24.8691 10.7802C24.859 10.9867 24.8084 11.1892 24.72 11.3762C24.6317 11.5631 24.5074 11.7308 24.3542 11.8697C22.3822 13.6579 21.0248 15.1539 19.899 16.9093C18.7657 18.6773 17.8288 20.7727 16.7685 23.8125C16.6803 24.0663 16.5286 24.2933 16.3279 24.4718C16.1272 24.6504 15.8841 24.7747 15.6218 24.8327C15.3595 24.8908 15.0867 24.8807 14.8294 24.8036C14.5721 24.7264 14.3388 24.5846 14.1517 24.3918L9.57306 19.6696C9.2825 19.3697 9.12298 18.9666 9.12959 18.5491C9.1362 18.1315 9.30841 17.7337 9.60832 17.4432C9.90823 17.1526 10.3113 16.9931 10.7288 16.9997C11.1463 17.0063 11.5441 17.1785 11.8347 17.4784L14.6731 20.405C15.4689 18.3851 16.2824 16.7204 17.2495 15.2118C18.5742 13.1416 20.1458 11.434 22.2387 9.53756C22.3918 9.39862 22.5708 9.2912 22.7654 9.22144C22.9601 9.15168 23.1665 9.12096 23.373 9.13101C23.5796 9.14107 23.7821 9.19171 23.969 9.28005C24.156 9.36839 24.3237 9.49269 24.4625 9.64586Z" fill="white"/>
</svg>
