<svg width="30" height="27" viewBox="0 0 30 27" fill="none" xmlns="http://www.w3.org/2000/svg">
<path d="M29.7274 9.9068H21.01C20.8602 9.9068 20.7376 10.0294 20.7376 10.1792V11.8137C20.7376 11.9636 20.8602 12.0861 21.01 12.0861H29.7274C29.8772 12.0861 29.9998 11.9636 29.9998 11.8137V10.1792C29.9998 10.0294 29.8772 9.9068 29.7274 9.9068ZM25.1644 14.5379H21.01C20.8602 14.5379 20.7376 14.6605 20.7376 14.8103V16.4448C20.7376 16.5947 20.8602 16.7172 21.01 16.7172H25.1644C25.3142 16.7172 25.4368 16.5947 25.4368 16.4448V14.8103C25.4368 14.6605 25.3142 14.5379 25.1644 14.5379ZM13.8012 6.85913H12.3267C12.1156 6.85913 11.9453 7.02939 11.9453 7.24052V15.6855C11.9453 15.8081 12.0032 15.9204 12.102 15.9919L17.1723 19.69C17.3426 19.8126 17.581 19.7785 17.7035 19.6083L18.5787 18.413V18.4096C18.7013 18.2394 18.6638 18.001 18.4936 17.8784L14.1791 14.7592V7.24052C14.1825 7.02939 14.0089 6.85913 13.8012 6.85913Z" fill="white"/>
<path d="M24.9535 18.8251H22.9853C22.7946 18.8251 22.6141 18.9238 22.5119 19.0873C22.0795 19.7717 21.5755 20.4051 20.9966 20.984C19.9989 21.9817 18.8377 22.7649 17.5471 23.3098C16.2089 23.875 14.7889 24.1611 13.3246 24.1611C11.857 24.1611 10.437 23.875 9.10218 23.3098C7.8116 22.7649 6.65042 21.9817 5.65269 20.984C4.65496 19.9863 3.87176 18.8251 3.32692 17.5345C2.76166 16.1997 2.47562 14.7797 2.47562 13.312C2.47562 11.8444 2.76166 10.4278 3.32692 9.08957C3.87176 7.79899 4.65496 6.63781 5.65269 5.64008C6.65042 4.64235 7.8116 3.85915 9.10218 3.31432C10.437 2.74905 11.8604 2.46301 13.3246 2.46301C14.7923 2.46301 16.2123 2.74905 17.5471 3.31432C18.8377 3.85915 19.9989 4.64235 20.9966 5.64008C21.5755 6.21897 22.0795 6.85234 22.5119 7.53679C22.6141 7.70024 22.7946 7.79899 22.9853 7.79899H24.9535C25.1884 7.79899 25.3383 7.55382 25.2327 7.3461C23.0125 2.92953 18.5108 0.0589274 13.4847 0.00103868C6.12601 -0.0909023 0.0136441 5.93293 2.32638e-05 13.2848C-0.0135976 20.6503 5.95575 26.6265 13.3212 26.6265C18.4121 26.6265 22.9887 23.7456 25.2327 19.278C25.3383 19.0703 25.185 18.8251 24.9535 18.8251Z" fill="white"/>
</svg>
