<svg width="30" height="30" viewBox="0 0 30 30" fill="none" xmlns="http://www.w3.org/2000/svg">
<path d="M0.5 15C0.5 11.8883 1.48539 9.00252 3.16043 6.63804C1.48592 9.00258 0.500998 11.8884 0.500998 15C0.500998 18.1116 1.48592 20.9974 3.16043 23.362C1.48539 20.9975 0.5 18.1117 0.5 15ZM29.5009 15C29.5009 11.8884 28.5159 9.00258 26.8414 6.63804C28.5165 9.00252 29.5019 11.8883 29.5019 15C29.5019 18.1117 28.5165 20.9975 26.8414 23.362C28.5159 20.9974 29.5009 18.1116 29.5009 15Z" fill="white" stroke="#A9A9A9"/>
<mask id="path-2-inside-1_1427_1010" fill="white">
<path d="M18.2749 6.58035H15.7789C12.6 6.54854 12.194 8.51593 12.194 10.6452V12.1934H10.7908C10.7273 12.185 10.6628 12.1912 10.6022 12.2117C10.5416 12.2322 10.4865 12.2664 10.4413 12.3117C10.396 12.3569 10.3618 12.412 10.3413 12.4726C10.3208 12.5332 10.3145 12.5978 10.323 12.6612V15.4677C10.3145 15.5311 10.3208 15.5957 10.3413 15.6563C10.3618 15.7169 10.396 15.772 10.4413 15.8172C10.4865 15.8625 10.5416 15.8967 10.6022 15.9172C10.6628 15.9377 10.7273 15.9439 10.7908 15.9355H12.194V22.9518C12.1862 23.0154 12.1931 23.0798 12.214 23.1403C12.2349 23.2008 12.2694 23.2557 12.3148 23.3009C12.3602 23.346 12.4153 23.3802 12.476 23.4007C12.5366 23.4213 12.6011 23.4277 12.6646 23.4196H15.5226C15.7986 23.4514 16.0221 23.2278 15.9342 22.9518L15.9361 15.9355H18.2749C18.3383 15.9439 18.4028 15.9377 18.4634 15.9172C18.524 15.8967 18.5791 15.8625 18.6243 15.8172C18.6696 15.772 18.7038 15.7169 18.7243 15.6563C18.7448 15.5957 18.7511 15.5311 18.7426 15.4677V12.6612C18.7511 12.5978 18.7448 12.5332 18.7243 12.4726C18.7038 12.412 18.6696 12.3569 18.6243 12.3117C18.5791 12.2664 18.524 12.2322 18.4634 12.2117C18.4028 12.1912 18.3383 12.185 18.2749 12.1934H15.9333L15.9361 10.7902C16.0268 10.1924 16.0268 10.2897 16.5816 10.3224H18.2552C18.3852 10.2934 18.5237 10.3093 18.621 10.2148C18.7183 10.1203 18.7744 9.99123 18.7417 9.85464V7.04811C18.7503 6.98473 18.7442 6.92022 18.7238 6.8596C18.7034 6.79898 18.6693 6.74388 18.6241 6.69861C18.5789 6.65334 18.5239 6.61911 18.4633 6.5986C18.4027 6.57809 18.3382 6.57184 18.2749 6.58035ZM17.7744 9.3345L16.6012 9.28959C15.1484 9.28959 15.0268 10.0782 15.0268 10.8856L15.023 12.6593C15.0229 12.725 15.0357 12.7901 15.0608 12.8508C15.0858 12.9115 15.1226 12.9667 15.169 13.0132C15.2154 13.0596 15.2705 13.0965 15.3312 13.1217C15.3919 13.1469 15.4569 13.1598 15.5226 13.1598H17.8071V14.9672H15.5244C15.3919 14.9672 15.2647 15.0198 15.1709 15.1135C15.077 15.2071 15.0242 15.3342 15.0239 15.4668L15.023 22.4841H13.1295V15.4677C13.1295 15.1917 12.9415 14.9682 12.6646 14.9682H11.2585V13.1607H12.6646C12.7302 13.1608 12.7952 13.148 12.8559 13.123C12.9166 13.0979 12.9717 13.0612 13.0182 13.0148C13.1118 12.9203 13.1286 12.7931 13.1286 12.6602V10.6442C13.1286 8.5468 13.5524 7.54767 15.778 7.54767H17.7734L17.7744 9.3345Z"/>
</mask>
<path d="M18.2749 6.58035H15.7789C12.6 6.54854 12.194 8.51593 12.194 10.6452V12.1934H10.7908C10.7273 12.185 10.6628 12.1912 10.6022 12.2117C10.5416 12.2322 10.4865 12.2664 10.4413 12.3117C10.396 12.3569 10.3618 12.412 10.3413 12.4726C10.3208 12.5332 10.3145 12.5978 10.323 12.6612V15.4677C10.3145 15.5311 10.3208 15.5957 10.3413 15.6563C10.3618 15.7169 10.396 15.772 10.4413 15.8172C10.4865 15.8625 10.5416 15.8967 10.6022 15.9172C10.6628 15.9377 10.7273 15.9439 10.7908 15.9355H12.194V22.9518C12.1862 23.0154 12.1931 23.0798 12.214 23.1403C12.2349 23.2008 12.2694 23.2557 12.3148 23.3009C12.3602 23.346 12.4153 23.3802 12.476 23.4007C12.5366 23.4213 12.6011 23.4277 12.6646 23.4196H15.5226C15.7986 23.4514 16.0221 23.2278 15.9342 22.9518L15.9361 15.9355H18.2749C18.3383 15.9439 18.4028 15.9377 18.4634 15.9172C18.524 15.8967 18.5791 15.8625 18.6243 15.8172C18.6696 15.772 18.7038 15.7169 18.7243 15.6563C18.7448 15.5957 18.7511 15.5311 18.7426 15.4677V12.6612C18.7511 12.5978 18.7448 12.5332 18.7243 12.4726C18.7038 12.412 18.6696 12.3569 18.6243 12.3117C18.5791 12.2664 18.524 12.2322 18.4634 12.2117C18.4028 12.1912 18.3383 12.185 18.2749 12.1934H15.9333L15.9361 10.7902C16.0268 10.1924 16.0268 10.2897 16.5816 10.3224H18.2552C18.3852 10.2934 18.5237 10.3093 18.621 10.2148C18.7183 10.1203 18.7744 9.99123 18.7417 9.85464V7.04811C18.7503 6.98473 18.7442 6.92022 18.7238 6.8596C18.7034 6.79898 18.6693 6.74388 18.6241 6.69861C18.5789 6.65334 18.5239 6.61911 18.4633 6.5986C18.4027 6.57809 18.3382 6.57184 18.2749 6.58035ZM17.7744 9.3345L16.6012 9.28959C15.1484 9.28959 15.0268 10.0782 15.0268 10.8856L15.023 12.6593C15.0229 12.725 15.0357 12.7901 15.0608 12.8508C15.0858 12.9115 15.1226 12.9667 15.169 13.0132C15.2154 13.0596 15.2705 13.0965 15.3312 13.1217C15.3919 13.1469 15.4569 13.1598 15.5226 13.1598H17.8071V14.9672H15.5244C15.3919 14.9672 15.2647 15.0198 15.1709 15.1135C15.077 15.2071 15.0242 15.3342 15.0239 15.4668L15.023 22.4841H13.1295V15.4677C13.1295 15.1917 12.9415 14.9682 12.6646 14.9682H11.2585V13.1607H12.6646C12.7302 13.1608 12.7952 13.148 12.8559 13.123C12.9166 13.0979 12.9717 13.0612 13.0182 13.0148C13.1118 12.9203 13.1286 12.7931 13.1286 12.6602V10.6442C13.1286 8.5468 13.5524 7.54767 15.778 7.54767H17.7734L17.7744 9.3345Z" fill="white"/>
<path d="M18.2749 6.58035V7.58035H18.3417L18.4079 7.57146L18.2749 6.58035ZM15.7789 6.58035L15.7689 7.58035H15.7789V6.58035ZM12.194 12.1934V13.1934H13.194V12.1934H12.194ZM10.7908 12.1934L10.6584 13.1846L10.7243 13.1934H10.7908V12.1934ZM10.323 12.6612H11.323V12.5947L11.3142 12.5288L10.323 12.6612ZM10.323 15.4677L11.3142 15.6001L11.323 15.5342V15.4677H10.323ZM10.7908 15.9355V14.9355H10.7243L10.6584 14.9443L10.7908 15.9355ZM12.194 15.9355H13.194V14.9355H12.194V15.9355ZM12.194 22.9518L13.1866 23.0736L13.194 23.0129V22.9518H12.194ZM12.6646 23.4196V22.4196H12.6005L12.5369 22.4278L12.6646 23.4196ZM15.5226 23.4196L15.6371 22.4261L15.58 22.4196H15.5226V23.4196ZM15.9342 22.9518L14.9342 22.9515L14.9342 23.1072L14.9814 23.2554L15.9342 22.9518ZM15.9361 15.9355V14.9355H14.9363L14.9361 15.9352L15.9361 15.9355ZM18.2749 15.9355L18.4073 14.9443L18.3413 14.9355H18.2749V15.9355ZM18.7426 15.4677H17.7426V15.5342L17.7514 15.6001L18.7426 15.4677ZM18.7426 12.6612L17.7514 12.5288L17.7426 12.5947V12.6612H18.7426ZM18.2749 12.1934V13.1934H18.3413L18.4073 13.1846L18.2749 12.1934ZM15.9333 12.1934L14.9333 12.1914L14.9313 13.1934H15.9333V12.1934ZM15.9361 10.7902L14.9474 10.6401L14.9362 10.7137L14.9361 10.7882L15.9361 10.7902ZM16.5816 10.3224L16.5227 11.3207L16.5521 11.3224H16.5816V10.3224ZM18.2552 10.3224V11.3224H18.3654L18.4729 11.2984L18.2552 10.3224ZM18.7417 9.85464H17.7417V9.97283L17.7692 10.0878L18.7417 9.85464ZM18.7417 7.04811L17.7508 6.91309L17.7417 6.98029V7.04811H18.7417ZM17.7744 9.3345L17.7361 10.3338L18.7749 10.3735L18.7744 9.33398L17.7744 9.3345ZM16.6012 9.28959L16.6395 8.29033L16.6204 8.28959H16.6012V9.28959ZM15.0268 10.8856L16.0268 10.8877V10.8856H15.0268ZM15.023 12.6593L14.023 12.6572L14.023 12.6574L15.023 12.6593ZM15.5226 13.1598V12.1598H15.5226L15.5226 13.1598ZM17.8071 13.1598H18.8071V12.1598H17.8071V13.1598ZM17.8071 14.9672V15.9672H18.8071V14.9672H17.8071ZM15.5244 14.9672L15.5244 15.9672H15.5244V14.9672ZM15.0239 15.4668L14.0239 15.4649L14.0239 15.4666L15.0239 15.4668ZM15.023 22.4841V23.4841H16.0229L16.023 22.4842L15.023 22.4841ZM13.1295 22.4841H12.1295V23.4841H13.1295V22.4841ZM11.2585 14.9682H10.2585V15.9682H11.2585V14.9682ZM11.2585 13.1607V12.1607H10.2585V13.1607H11.2585ZM12.6646 13.1607L12.6661 12.1607H12.6646V13.1607ZM13.0182 13.0148L13.7246 13.7227L13.7288 13.7184L13.0182 13.0148ZM17.7734 7.54767L18.7734 7.54715L18.7729 6.54767H17.7734V7.54767ZM18.2749 5.58035H15.7789V7.58035H18.2749V5.58035ZM15.7889 5.5804C13.9802 5.5623 12.7041 6.12651 11.9604 7.25059C11.2831 8.27437 11.194 9.57025 11.194 10.6452H13.194C13.194 9.59083 13.308 8.8384 13.6284 8.35414C13.8824 7.97017 14.3988 7.56659 15.7689 7.5803L15.7889 5.5804ZM11.194 10.6452V12.1934H13.194V10.6452H11.194ZM12.194 11.1934H10.7908V13.1934H12.194V11.1934ZM10.9232 11.2022C10.7074 11.1734 10.4879 11.1947 10.2817 11.2645L10.9227 13.159C10.8378 13.1877 10.7473 13.1965 10.6584 13.1846L10.9232 11.2022ZM10.2817 11.2645C10.0754 11.3343 9.8881 11.4506 9.73416 11.6046L11.1484 13.0188C11.0849 13.0822 11.0077 13.1302 10.9227 13.159L10.2817 11.2645ZM9.73416 11.6046C9.58023 11.7585 9.46385 11.9459 9.39407 12.1521L11.2885 12.7932C11.2598 12.8781 11.2118 12.9554 11.1484 13.0188L9.73416 11.6046ZM9.39407 12.1521C9.32429 12.3583 9.30298 12.5778 9.3318 12.7936L11.3142 12.5288C11.3261 12.6177 11.3173 12.7082 11.2885 12.7932L9.39407 12.1521ZM9.323 12.6612V15.4677H11.323V12.6612H9.323ZM9.3318 15.3353C9.30298 15.5511 9.32429 15.7706 9.39407 15.9768L11.2885 15.3357C11.3173 15.4207 11.3261 15.5112 11.3142 15.6001L9.3318 15.3353ZM9.39407 15.9768C9.46385 16.183 9.58022 16.3704 9.73416 16.5243L11.1484 15.1101C11.2118 15.1735 11.2598 15.2508 11.2885 15.3357L9.39407 15.9768ZM9.73416 16.5243C9.8881 16.6783 10.0755 16.7946 10.2817 16.8644L10.9227 14.9699C11.0077 14.9987 11.0849 15.0467 11.1484 15.1101L9.73416 16.5243ZM10.2817 16.8644C10.4878 16.9342 10.7074 16.9555 10.9232 16.9267L10.6584 14.9443C10.7473 14.9324 10.8378 14.9412 10.9227 14.9699L10.2817 16.8644ZM10.7908 16.9355H12.194V14.9355H10.7908V16.9355ZM11.194 15.9355V22.9518H13.194V15.9355H11.194ZM11.2015 22.83C11.1751 23.0449 11.1982 23.2628 11.269 23.4674L13.159 22.8133C13.1879 22.8968 13.1973 22.9859 13.1866 23.0736L11.2015 22.83ZM11.269 23.4674C11.3398 23.6719 11.4563 23.8575 11.6098 24.0101L13.0198 22.5916C13.0825 22.654 13.1301 22.7298 13.159 22.8133L11.269 23.4674ZM11.6098 24.0101C11.7633 24.1627 11.9496 24.2781 12.1546 24.3477L12.7973 22.4538C12.881 22.4822 12.9571 22.5293 13.0198 22.5916L11.6098 24.0101ZM12.1546 24.3477C12.3595 24.4172 12.5776 24.439 12.7923 24.4114L12.5369 22.4278C12.6245 22.4165 12.7136 22.4254 12.7973 22.4538L12.1546 24.3477ZM12.6646 24.4196H15.5226V22.4196H12.6646V24.4196ZM15.4081 24.413C15.8425 24.4631 16.291 24.3153 16.6012 23.9777C16.9264 23.6237 17.0385 23.1238 16.887 22.6482L14.9814 23.2554C14.9178 23.0558 14.9621 22.8056 15.1285 22.6245C15.2799 22.4597 15.4786 22.4079 15.6371 22.4261L15.4081 24.413ZM16.9342 22.9521L16.9361 15.9357L14.9361 15.9352L14.9342 22.9515L16.9342 22.9521ZM15.9361 16.9355H18.2749V14.9355H15.9361V16.9355ZM18.1425 16.9267C18.3582 16.9555 18.5778 16.9342 18.784 16.8644L18.1429 14.9699C18.2278 14.9412 18.3183 14.9324 18.4073 14.9443L18.1425 16.9267ZM18.784 16.8644C18.9901 16.7946 19.1775 16.6783 19.3314 16.5243L17.9172 15.1101C17.9807 15.0466 18.0579 14.9987 18.1429 14.9699L18.784 16.8644ZM19.3314 16.5243C19.4854 16.3704 19.6018 16.183 19.6715 15.9768L17.7771 15.3357C17.8058 15.2508 17.8538 15.1736 17.9172 15.1101L19.3314 16.5243ZM19.6715 15.9768C19.7413 15.7706 19.7626 15.5511 19.7338 15.3353L17.7514 15.6001C17.7395 15.5112 17.7483 15.4207 17.7771 15.3357L19.6715 15.9768ZM19.7426 15.4677V12.6612H17.7426V15.4677H19.7426ZM19.7338 12.7936C19.7626 12.5778 19.7413 12.3583 19.6715 12.1521L17.7771 12.7932C17.7483 12.7082 17.7395 12.6177 17.7514 12.5288L19.7338 12.7936ZM19.6715 12.1521C19.6018 11.9459 19.4854 11.7585 19.3314 11.6046L17.9172 13.0188C17.8538 12.9553 17.8058 12.8781 17.7771 12.7932L19.6715 12.1521ZM19.3314 11.6046C19.1775 11.4506 18.9902 11.3343 18.784 11.2645L18.1429 13.159C18.0579 13.1302 17.9807 13.0822 17.9172 13.0188L19.3314 11.6046ZM18.784 11.2645C18.5778 11.1947 18.3582 11.1734 18.1425 11.2022L18.4073 13.1846C18.3183 13.1965 18.2279 13.1877 18.1429 13.159L18.784 11.2645ZM18.2749 11.1934H15.9333V13.1934H18.2749V11.1934ZM16.9333 12.1954L16.9361 10.7922L14.9361 10.7882L14.9333 12.1914L16.9333 12.1954ZM16.9247 10.9402C16.9362 10.8648 16.9443 10.8132 16.9514 10.7735C16.9589 10.732 16.9614 10.7257 16.9582 10.7369C16.9557 10.7456 16.9367 10.8123 16.8842 10.8971C16.8237 10.9949 16.726 11.1048 16.5826 11.1871C16.4482 11.2643 16.3282 11.2855 16.2686 11.2922C16.2147 11.2982 16.1833 11.2949 16.2043 11.2961C16.2241 11.2972 16.2497 11.2994 16.3118 11.3048C16.3671 11.3096 16.439 11.3157 16.5227 11.3207L16.6405 9.32414C16.5855 9.32089 16.536 9.31678 16.4848 9.31233C16.4403 9.30847 16.3742 9.30242 16.3146 9.29913C16.2449 9.29529 15.9113 9.26641 15.5871 9.45251C15.2024 9.67326 15.0795 10.0334 15.0362 10.1836C14.9929 10.3341 14.9667 10.5129 14.9474 10.6401L16.9247 10.9402ZM16.5816 11.3224H18.2552V9.3224H16.5816V11.3224ZM18.4729 11.2984C18.4544 11.3025 18.4458 11.3029 18.4765 11.299C18.4928 11.297 18.5624 11.2892 18.6293 11.277C18.7775 11.2501 19.0634 11.1791 19.3177 10.9322L17.9243 9.49744C17.9989 9.42502 18.079 9.37737 18.1485 9.34771C18.2126 9.32032 18.2611 9.31119 18.2715 9.3093C18.2774 9.30821 18.2787 9.30818 18.2709 9.30921C18.2604 9.31061 18.254 9.31133 18.2305 9.31424C18.1957 9.31855 18.121 9.32776 18.0375 9.34638L18.4729 11.2984ZM19.3177 10.9322C19.5934 10.6644 19.8509 10.192 19.7141 9.62152L17.7692 10.0878C17.698 9.79046 17.8432 9.57621 17.9243 9.49744L19.3177 10.9322ZM19.7417 9.85464V7.04811H17.7417V9.85464H19.7417ZM19.7325 7.18312C19.7619 6.96716 19.7411 6.74734 19.6716 6.54078L17.776 7.17842C17.7473 7.09311 17.7387 7.00231 17.7508 6.91309L19.7325 7.18312ZM19.6716 6.54078C19.6021 6.33422 19.4859 6.14648 19.3319 5.99221L17.9163 7.40501C17.8527 7.34128 17.8047 7.26374 17.776 7.17842L19.6716 6.54078ZM19.3319 5.99221C19.178 5.83795 18.9905 5.72133 18.784 5.65143L18.1426 7.54578C18.0573 7.5169 17.9799 7.46873 17.9163 7.40501L19.3319 5.99221ZM18.784 5.65143C18.5776 5.58153 18.3578 5.56025 18.1418 5.58924L18.4079 7.57146C18.3187 7.58344 18.2279 7.57465 18.1426 7.54578L18.784 5.65143ZM17.8126 8.33523L16.6395 8.29033L16.563 10.2889L17.7361 10.3338L17.8126 8.33523ZM16.6012 8.28959C15.706 8.28959 14.9286 8.5384 14.4543 9.20523C14.0385 9.78976 14.0268 10.491 14.0268 10.8856H16.0268C16.0268 10.701 16.0346 10.5721 16.0523 10.4746C16.0693 10.3812 16.0884 10.3584 16.0841 10.3644C16.0722 10.3811 16.0656 10.3732 16.1147 10.3535C16.1775 10.3283 16.3222 10.2896 16.6012 10.2896V8.28959ZM14.0268 10.8835L14.023 12.6572L16.023 12.6614L16.0268 10.8877L14.0268 10.8835ZM14.023 12.6574C14.0226 12.8546 14.0612 13.0499 14.1364 13.2322L15.9852 12.4694C16.0103 12.5302 16.0231 12.5954 16.023 12.6612L14.023 12.6574ZM14.1364 13.2322C14.2115 13.4144 14.3219 13.5801 14.4612 13.7196L15.8768 12.3067C15.9233 12.3533 15.9601 12.4086 15.9852 12.4694L14.1364 13.2322ZM14.4612 13.7196C14.6005 13.8591 14.766 13.9699 14.9481 14.0454L15.7143 12.198C15.7751 12.2232 15.8303 12.2601 15.8768 12.3067L14.4612 13.7196ZM14.9481 14.0454C15.1302 14.1209 15.3254 14.1598 15.5226 14.1598L15.5226 12.1598C15.5884 12.1598 15.6535 12.1728 15.7143 12.198L14.9481 14.0454ZM15.5226 14.1598H17.8071V12.1598H15.5226V14.1598ZM16.8071 13.1598V14.9672H18.8071V13.1598H16.8071ZM17.8071 13.9672H15.5244V15.9672H17.8071V13.9672ZM15.5244 13.9672C15.127 13.9672 14.7457 14.1249 14.4644 14.4057L15.8773 15.8212C15.7837 15.9147 15.6568 15.9672 15.5244 15.9672L15.5244 13.9672ZM14.4644 14.4057C14.1831 14.6865 14.0247 15.0674 14.024 15.4649L16.0239 15.4686C16.0237 15.601 15.971 15.7278 15.8773 15.8212L14.4644 14.4057ZM14.0239 15.4666L14.023 22.4839L16.023 22.4842L16.0239 15.4669L14.0239 15.4666ZM15.023 21.4841H13.1295V23.4841H15.023V21.4841ZM14.1295 22.4841V15.4677H12.1295V22.4841H14.1295ZM14.1295 15.4677C14.1295 14.7379 13.5874 13.9682 12.6646 13.9682V15.9682C12.5172 15.9682 12.3647 15.902 12.2587 15.7846C12.1601 15.6754 12.1295 15.5552 12.1295 15.4677H14.1295ZM12.6646 13.9682H11.2585V15.9682H12.6646V13.9682ZM12.2585 14.9682V13.1607H10.2585V14.9682H12.2585ZM11.2585 14.1607H12.6646V12.1607H11.2585V14.1607ZM12.6631 14.1607C12.8601 14.161 13.0553 14.1225 13.2374 14.0473L12.4744 12.1986C12.5352 12.1735 12.6003 12.1606 12.6661 12.1607L12.6631 14.1607ZM13.2374 14.0473C13.4195 13.9722 13.5851 13.8618 13.7246 13.7227L12.3119 12.3069C12.3584 12.2605 12.4137 12.2237 12.4744 12.1986L13.2374 14.0473ZM13.7288 13.7184C14.1198 13.3235 14.1286 12.8363 14.1286 12.6602H12.1286C12.1286 12.6932 12.1252 12.6587 12.1416 12.5966C12.1615 12.5214 12.2087 12.4111 12.3076 12.3112L13.7288 13.7184ZM14.1286 12.6602V10.6442H12.1286V12.6602H14.1286ZM14.1286 10.6442C14.1286 9.58944 14.2536 9.12949 14.4186 8.90959C14.5201 8.7743 14.7812 8.54767 15.778 8.54767V6.54767C14.5491 6.54767 13.4856 6.82061 12.8188 7.70924C12.2155 8.51326 12.1286 9.60158 12.1286 10.6442H14.1286ZM15.778 8.54767H17.7734V6.54767H15.778V8.54767ZM16.7734 7.5482L16.7744 9.33502L18.7744 9.33398L18.7734 7.54715L16.7734 7.5482Z" fill="#A9A9A9" mask="url(#path-2-inside-1_1427_1010)"/>
</svg>
