<svg width="135" height="28" viewBox="0 0 135 28" fill="none" xmlns="http://www.w3.org/2000/svg">
<path d="M94.5 2.2445L97.0554 10.1092L97.1677 10.4547H97.5309H105.8L99.1103 15.3154L98.8164 15.5289L98.9286 15.8744L101.484 23.7392L94.7939 18.8785L94.5 18.665L94.2061 18.8785L87.516 23.7392L90.0714 15.8744L90.1836 15.5289L89.8897 15.3154L83.1996 10.4547H91.4691H91.8323L91.9446 10.1092L94.5 2.2445Z" fill="#8CC2E9" stroke="#8CC2E9"/>
<path d="M40.5 0.626465L43.5309 9.95473H53.3393L45.4042 15.7199L48.4351 25.0482L40.5 19.283L32.5649 25.0482L35.5958 15.7199L27.6607 9.95473H37.4691L40.5 0.626465Z" fill="#4F9FD7"/>
<path d="M67.5 0.626465L70.5309 9.95473H80.3393L72.4042 15.7199L75.4351 25.0482L67.5 19.283L59.5649 25.0482L62.5958 15.7199L54.6607 9.95473H64.4691L67.5 0.626465Z" fill="#4F9FD7"/>
<path d="M13.5 0.626465L16.5309 9.95473H26.3393L18.4042 15.7199L21.4351 25.0482L13.5 19.283L5.5649 25.0482L8.59584 15.7199L0.660737 9.95473H10.4691L13.5 0.626465Z" fill="#4F9FD7"/>
<path d="M121.5 2.2445L124.055 10.1092L124.168 10.4547H124.531H132.8L126.11 15.3154L125.816 15.5289L125.929 15.8744L128.484 23.7392L121.794 18.8785L121.5 18.665L121.206 18.8785L114.516 23.7392L117.071 15.8744L117.184 15.5289L116.89 15.3154L110.2 10.4547H118.469H118.832L118.945 10.1092L121.5 2.2445Z" stroke="#8CC2E9"/>
</svg>
