<svg width="32" height="32" viewBox="0 0 32 32" fill="none" xmlns="http://www.w3.org/2000/svg">
<path d="M1 16C1 24.2845 7.7155 31 16 31C24.2845 31 31 24.2845 31 16C31 7.7155 24.2845 1 16 1C7.7155 1 1 7.7155 1 16Z" stroke="white" stroke-linecap="round" stroke-linejoin="round"/>
<path d="M17.5003 1.07495C17.5003 1.07495 22.0003 6.99995 22.0003 16C22.0003 25 17.5003 30.925 17.5003 30.925M14.5003 30.925C14.5003 30.925 10.0003 25 10.0003 16C10.0003 6.99995 14.5003 1.07495 14.5003 1.07495M1.94531 21.25H30.0553M1.94531 10.75H30.0553" stroke="white" stroke-linecap="round" stroke-linejoin="round"/>
</svg>
