<svg width="30" height="30" viewBox="0 0 30 30" fill="none" xmlns="http://www.w3.org/2000/svg">
<path d="M15.002 21.125H15.0025C16.6263 21.1232 18.183 20.4774 19.3312 19.3292C20.4793 18.181 21.1252 16.6243 21.127 15.0006V15C21.127 13.7886 20.7677 12.6044 20.0947 11.5971C19.4217 10.5899 18.4651 9.80482 17.3459 9.34124C16.2267 8.87765 14.9952 8.75636 13.807 8.99269C12.6189 9.22902 11.5275 9.81238 10.6709 10.669C9.81433 11.5256 9.23098 12.6169 8.99464 13.8051C8.75831 14.9932 8.8796 16.2247 9.34319 17.3439C9.80678 18.4631 10.5918 19.4197 11.5991 20.0928C12.6063 20.7658 13.7905 21.125 15.002 21.125ZM29.252 21.8756V21.875V8.125V8.12443C29.2497 6.16929 28.4721 4.29486 27.0896 2.91237C25.7071 1.52988 23.8327 0.752218 21.8775 0.75H21.877L8.12695 0.75L8.12639 0.75C6.17125 0.752218 4.29682 1.52988 2.91432 2.91237C1.53183 4.29487 0.754171 6.16929 0.751953 8.12443V8.125L0.751953 21.875L0.751953 21.8756C0.754171 23.8307 1.53183 25.7051 2.91432 27.0876C4.29682 28.4701 6.17125 29.2478 8.12639 29.25H8.12695H21.877H21.8775C23.8327 29.2478 25.7071 28.4701 27.0896 27.0876C28.4721 25.7051 29.2497 23.8307 29.252 21.8756ZM11.4602 9.69938C12.5084 8.99899 13.7407 8.62511 15.0014 8.625C16.6917 8.62692 18.3122 9.29924 19.5075 10.4945C20.7027 11.6897 21.375 13.3102 21.377 15.0006C21.3768 16.2612 21.003 17.4936 20.3026 18.5418C19.6021 19.5901 18.6064 20.4072 17.4416 20.8897C16.2767 21.3722 14.9949 21.4985 13.7583 21.2525C12.5216 21.0065 11.3857 20.3994 10.4941 19.5078C9.60259 18.6162 8.99543 17.4803 8.74945 16.2437C8.50347 15.0071 8.62971 13.7253 9.11222 12.5604C9.59473 11.3955 10.4118 10.3999 11.4602 9.69938ZM8.12723 0.5H21.8767C23.8983 0.502365 25.8364 1.3065 27.2659 2.73601C28.6955 4.16558 29.4997 6.10384 29.502 8.12557V21.8744C29.4997 23.8962 28.6955 25.8344 27.2659 27.264C25.8364 28.6936 23.8981 29.4977 21.8764 29.5H8.12752C6.1058 29.4977 4.16753 28.6936 2.73796 27.264C1.30845 25.8345 0.504318 23.8963 0.501953 21.8747V8.12528C0.504318 6.10366 1.30845 4.16551 2.73796 2.73601C4.16747 1.3065 6.10561 0.502365 8.12723 0.5ZM23.877 6.875C23.877 7.02334 23.833 7.16834 23.7506 7.29168C23.6681 7.41501 23.551 7.51114 23.414 7.56791C23.2769 7.62468 23.1261 7.63953 22.9806 7.61059C22.8351 7.58165 22.7015 7.51022 22.5966 7.40533C22.4917 7.30044 22.4203 7.1668 22.3914 7.02132C22.3624 6.87583 22.3773 6.72503 22.434 6.58799C22.4908 6.45094 22.5869 6.33381 22.7103 6.2514C22.8335 6.16903 22.9784 6.12505 23.1267 6.125C23.3256 6.12534 23.5162 6.20449 23.6568 6.34513C23.7975 6.48584 23.8767 6.67662 23.877 6.87562L24.377 6.875H23.877Z" fill="white" stroke="#A9A9A9"/>
</svg>
