<svg width="30" height="30" viewBox="0 0 30 30" fill="none" xmlns="http://www.w3.org/2000/svg">
<path d="M26.7857 24.6429H20.3571C19.5047 24.6429 18.6871 24.9815 18.0843 25.5843C17.4815 26.1871 17.1429 27.0047 17.1429 27.8571V30H19.2857V27.8571C19.2857 27.573 19.3986 27.3005 19.5995 27.0995C19.8005 26.8986 20.073 26.7857 20.3571 26.7857H26.7857C27.0699 26.7857 27.3424 26.8986 27.5433 27.0995C27.7443 27.3005 27.8571 27.573 27.8571 27.8571V30H30V27.8571C30 27.0047 29.6614 26.1871 29.0586 25.5843C28.4558 24.9815 27.6382 24.6429 26.7857 24.6429ZM19.2857 19.2857C19.2857 20.1334 19.5371 20.9619 20.008 21.6667C20.4789 22.3715 21.1482 22.9208 21.9314 23.2452C22.7145 23.5696 23.5762 23.6544 24.4075 23.4891C25.2389 23.3237 26.0025 22.9155 26.6019 22.3162C27.2013 21.7168 27.6094 20.9532 27.7748 20.1218C27.9402 19.2905 27.8553 18.4288 27.5309 17.6456C27.2065 16.8625 26.6572 16.1932 25.9524 15.7223C25.2477 15.2514 24.4191 15 23.5714 15C22.4348 15 21.3447 15.4515 20.541 16.2553C19.7372 17.059 19.2857 18.1491 19.2857 19.2857ZM25.7143 19.2857C25.7143 19.7095 25.5886 20.1238 25.3531 20.4762C25.1177 20.8286 24.783 21.1033 24.3915 21.2655C23.9999 21.4276 23.569 21.4701 23.1534 21.3874C22.7377 21.3047 22.3559 21.1006 22.0562 20.8009C21.7565 20.5013 21.5524 20.1194 21.4697 19.7038C21.3871 19.2881 21.4295 18.8572 21.5917 18.4657C21.7539 18.0741 22.0285 17.7395 22.3809 17.504C22.7333 17.2685 23.1476 17.1429 23.5714 17.1429C24.1397 17.1429 24.6848 17.3686 25.0867 17.7705C25.4885 18.1724 25.7143 18.7174 25.7143 19.2857ZM4.28571 20.3571V19.2857H2.14286V20.3571C2.14286 22.3463 2.93303 24.2539 4.33956 25.6604C5.74608 27.067 7.65373 27.8571 9.64286 27.8571H12.8571V25.7143H9.64286C8.22205 25.7143 6.85944 25.1499 5.85478 24.1452C4.85013 23.1406 4.28571 21.7779 4.28571 20.3571ZM18.2143 8.57143H25.7143V10.7143H18.2143V8.57143ZM18.2143 4.28572H28.9286V6.42857H18.2143V4.28572ZM18.2143 1.79865e-06H28.9286V2.14286H18.2143V1.79865e-06ZM9.64286 9.64286H3.21429C2.3618 9.64286 1.54424 9.98151 0.941443 10.5843C0.338647 11.1871 0 12.0047 0 12.8571V15H2.14286V12.8571C2.14286 12.573 2.25574 12.3005 2.45667 12.0995C2.6576 11.8986 2.93012 11.7857 3.21429 11.7857H9.64286C9.92702 11.7857 10.1995 11.8986 10.4005 12.0995C10.6014 12.3005 10.7143 12.573 10.7143 12.8571V15H12.8571V12.8571C12.8571 12.0047 12.5185 11.1871 11.9157 10.5843C11.3129 9.98151 10.4953 9.64286 9.64286 9.64286ZM6.42857 8.57143C7.27621 8.57143 8.1048 8.32008 8.80959 7.84916C9.51437 7.37824 10.0637 6.7089 10.3881 5.92579C10.7124 5.14268 10.7973 4.28096 10.6319 3.44961C10.4666 2.61827 10.0584 1.85463 9.45903 1.25526C8.85966 0.655891 8.09602 0.247716 7.26467 0.0823507C6.43333 -0.0830145 5.57161 0.00185692 4.7885 0.326232C4.00539 0.650608 3.33605 1.19992 2.86513 1.9047C2.39421 2.60948 2.14286 3.43808 2.14286 4.28572C2.14286 5.42236 2.59439 6.51245 3.39811 7.31617C4.20184 8.1199 5.29193 8.57143 6.42857 8.57143ZM6.42857 2.14286C6.85239 2.14286 7.26669 2.26854 7.61908 2.504C7.97147 2.73946 8.24613 3.07412 8.40831 3.46568C8.5705 3.85724 8.61294 4.28809 8.53025 4.70377C8.44757 5.11944 8.24348 5.50126 7.9438 5.80095C7.64412 6.10063 7.2623 6.30472 6.84662 6.3874C6.43095 6.47008 6.00009 6.42765 5.60854 6.26546C5.21698 6.10327 4.88231 5.82861 4.64685 5.47622C4.41139 5.12383 4.28571 4.70953 4.28571 4.28572C4.28571 3.7174 4.51148 3.17235 4.91334 2.77049C5.31521 2.36862 5.86025 2.14286 6.42857 2.14286Z" fill="white"/>
</svg>
