<svg width="33" height="30" viewBox="0 0 33 30" fill="none" xmlns="http://www.w3.org/2000/svg">
<path fill-rule="evenodd" clip-rule="evenodd" d="M29.5708 14.2285C30.5649 14.2285 31.3708 13.4226 31.3708 12.4285C31.3708 11.4344 30.5649 10.6285 29.5708 10.6285C28.5767 10.6285 27.7708 11.4344 27.7708 12.4285C27.7708 13.4226 28.5767 14.2285 29.5708 14.2285ZM29.5708 15.4285C31.2277 15.4285 32.5708 14.0853 32.5708 12.4285C32.5708 10.7716 31.2277 9.42847 29.5708 9.42847C27.9139 9.42847 26.5708 10.7716 26.5708 12.4285C26.5708 14.0853 27.9139 15.4285 29.5708 15.4285Z" fill="url(#paint0_linear_1418_221)"/>
<path d="M29.9999 9.73714C28.9324 6.91844 27.0777 4.48919 24.6703 2.75658C22.2629 1.02396 19.4109 0.0658038 16.475 0.00326899C13.5391 -0.0592658 10.6511 0.776631 8.17627 2.40525C5.70143 4.03388 3.75089 6.38208 2.57129 9.15292L3.91257 9.75912C4.9758 7.26161 6.73393 5.14505 8.96464 3.67708C11.1953 2.20912 13.7984 1.45568 16.4447 1.51205C19.091 1.56841 21.6617 2.43205 23.8316 3.99375C26.0015 5.55545 27.6733 7.74507 28.6354 10.2857L29.9999 9.73714Z" fill="url(#paint1_linear_1418_221)"/>
<path fill-rule="evenodd" clip-rule="evenodd" d="M3 15.7713C2.00589 15.7713 1.2 16.5772 1.2 17.5713C1.2 18.5654 2.00589 19.3713 3 19.3713C3.99411 19.3713 4.8 18.5654 4.8 17.5713C4.8 16.5772 3.99411 15.7713 3 15.7713ZM3 14.5713C1.34315 14.5713 2.38419e-06 15.9144 2.38419e-06 17.5713C2.38419e-06 19.2281 1.34315 20.5713 3 20.5713C4.65685 20.5713 6 19.2281 6 17.5713C6 15.9144 4.65685 14.5713 3 14.5713Z" fill="url(#paint2_linear_1418_221)"/>
<path d="M2.57095 20.2626C3.6384 23.0813 5.4931 25.5106 7.9005 27.2432C10.3079 28.9758 13.1599 29.934 16.0958 29.9965C19.0317 30.059 21.9197 29.2231 24.3945 27.5945C26.8694 25.9659 28.8199 23.6177 29.9995 20.8468L28.6582 20.2406C27.595 22.7381 25.8369 24.8547 23.6062 26.3227C21.3755 27.7906 18.7724 28.5441 16.1261 28.4877C13.4798 28.4313 10.9091 27.5677 8.73921 26.006C6.56928 24.4443 4.89755 22.2547 3.93539 19.714L2.57095 20.2626Z" fill="url(#paint3_linear_1418_221)"/>
<path d="M17.002 23.3379H15.6641V22.0488C14.2708 21.9577 13.1608 21.5573 12.334 20.8477C11.5072 20.1315 11.0905 19.2103 11.084 18.084H13.1543C13.2064 18.6829 13.4538 19.1777 13.8965 19.5684C14.3392 19.959 14.9284 20.1966 15.6641 20.2812V15.6621L14.7949 15.4375C13.7012 15.1641 12.8613 14.7083 12.2754 14.0703C11.696 13.4258 11.4063 12.6315 11.4063 11.6875C11.4063 10.5742 11.7839 9.66927 12.5391 8.97266C13.2943 8.26953 14.3359 7.85612 15.6641 7.73242V6.375H17.002V7.73242C18.2715 7.83659 19.2904 8.24674 20.0586 8.96289C20.8333 9.67253 21.237 10.5677 21.2695 11.6484H19.2285C19.209 11.0951 18.9941 10.623 18.584 10.2324C18.1738 9.83529 17.6465 9.5944 17.002 9.50977V13.875L17.9102 14.0801C19.1276 14.3861 20.0326 14.8548 20.625 15.4863C21.2174 16.1113 21.5137 16.9284 21.5137 17.9375C21.5137 19.1224 21.1198 20.0729 20.332 20.7891C19.5443 21.5052 18.4342 21.9219 17.002 22.0391V23.3379ZM19.4434 18.1328C19.4434 17.5534 19.2448 17.0846 18.8477 16.7266C18.457 16.362 17.8418 16.0918 17.002 15.916V20.3105C17.7767 20.265 18.3757 20.0534 18.7988 19.6758C19.2285 19.2917 19.4434 18.7773 19.4434 18.1328ZM13.4961 11.541C13.4961 12.0684 13.6816 12.5046 14.0527 12.8496C14.4238 13.1947 14.9609 13.4421 15.6641 13.5918V9.50977C15.0391 9.54232 14.5215 9.75065 14.1113 10.1348C13.7012 10.5124 13.4961 10.9811 13.4961 11.541Z" fill="url(#paint4_linear_1418_221)"/>
<defs>
<linearGradient id="paint0_linear_1418_221" x1="31.2958" y1="9.42847" x2="27.1529" y2="9.80052" gradientUnits="userSpaceOnUse">
<stop stop-color="#A9E1D3"/>
<stop offset="1" stop-color="#8CC2E9"/>
</linearGradient>
<linearGradient id="paint1_linear_1418_221" x1="24.1713" y1="-1.61661e-06" x2="6.11503" y2="4.32412" gradientUnits="userSpaceOnUse">
<stop stop-color="#A9E1D3"/>
<stop offset="1" stop-color="#8CC2E9"/>
</linearGradient>
<linearGradient id="paint2_linear_1418_221" x1="1.275" y1="20.5713" x2="5.41792" y2="20.1992" gradientUnits="userSpaceOnUse">
<stop stop-color="#A9E1D3"/>
<stop offset="1" stop-color="#8CC2E9"/>
</linearGradient>
<linearGradient id="paint3_linear_1418_221" x1="8.39952" y1="29.9998" x2="26.4558" y2="25.6756" gradientUnits="userSpaceOnUse">
<stop stop-color="#A9E1D3"/>
<stop offset="1" stop-color="#8CC2E9"/>
</linearGradient>
<linearGradient id="paint4_linear_1418_221" x1="19.8438" y1="2" x2="11.1606" y2="2.38989" gradientUnits="userSpaceOnUse">
<stop stop-color="#A9E1D3"/>
<stop offset="1" stop-color="#8CC2E9"/>
</linearGradient>
</defs>
</svg>
