<svg width="1920" height="8997" viewBox="0 0 1920 8997" fill="none" xmlns="http://www.w3.org/2000/svg">
<g clip-path="url(#clip0_1034_18015)">
<rect width="1920" height="8997" fill="white"/>
<path d="M1921 -62H0V8997H1921V-62Z" fill="#000712"/>
<g filter="url(#filter0_f_1034_18015)">
<path d="M1511 720.269C1511 758.572 1452.76 789.622 1402.32 789.622C1351.89 789.622 1311 758.572 1311 720.269C1311 681.966 1355.83 623 1406.27 623C1456.7 623 1511 664.034 1511 720.269Z" fill="#209B79"/>
</g>
<g filter="url(#filter1_f_1034_18015)">
<path d="M1825 684.269C1825 722.572 1766.76 753.622 1716.32 753.622C1665.89 753.622 1625 722.572 1625 684.269C1625 645.966 1669.83 587 1720.27 587C1770.7 587 1825 628.034 1825 684.269Z" fill="#209B79"/>
</g>
<g opacity="0.65" filter="url(#filter2_f_1034_18015)">
<path d="M1713 494.91C1713 518.823 1666.41 538.208 1626.06 538.208C1585.71 538.208 1553 518.823 1553 494.91C1553 470.997 1588.86 434.184 1629.21 434.184C1669.56 434.184 1713 459.802 1713 494.91Z" fill="#209B79"/>
</g>
<g opacity="0.65" filter="url(#filter3_f_1034_18015)">
<path d="M1763 385.801C1763 410.137 1724.27 429.865 1690.73 429.865C1657.19 429.865 1630 410.137 1630 385.801C1630 361.464 1659.81 324 1693.35 324C1726.89 324 1763 350.071 1763 385.801Z" fill="#209B79"/>
</g>
<g filter="url(#filter4_f_1034_18015)">
<path d="M1543 207.269C1543 245.572 1484.76 276.622 1434.32 276.622C1383.89 276.622 1343 245.572 1343 207.269C1343 168.966 1387.83 110 1438.27 110C1488.7 110 1543 151.034 1543 207.269Z" fill="#209B79"/>
</g>
<g opacity="0.65" filter="url(#filter5_f_1034_18015)">
<path d="M1162 584.427C1162 606.646 1121.23 624.659 1085.93 624.659C1050.62 624.659 1022 606.646 1022 584.427C1022 562.207 1053.38 528 1088.69 528C1123.99 528 1162 551.804 1162 584.427Z" fill="#209B79"/>
</g>
<g opacity="0.65" filter="url(#filter6_f_1034_18015)">
<path d="M1143 702.277C1143 723.65 1102.23 740.977 1066.93 740.977C1031.62 740.977 1003 723.65 1003 702.277C1003 680.904 1034.38 648 1069.69 648C1104.99 648 1143 670.897 1143 702.277Z" fill="#209B79"/>
</g>
<g opacity="0.75" filter="url(#filter7_f_1034_18015)">
<path d="M878 374.891C878 500.448 541.279 737.05 359.372 737.05C177.465 737.05 30 585.422 30 459.865C30 334.309 266.973 155.931 448.88 155.931C630.787 155.931 799.003 57.2736 878 374.891Z" fill="#5238A3"/>
</g>
<g opacity="0.75" filter="url(#filter8_f_1034_18015)">
<path d="M1296.8 287.354C1296.8 407.341 1068.05 559.381 936.036 559.381C804.02 559.381 697 462.112 697 342.124C697 222.137 814.347 37.4209 946.363 37.4209C1078.38 37.4209 1416.44 124.868 1296.8 287.354Z" fill="#209B79"/>
</g>
<g opacity="0.75" filter="url(#filter9_f_1034_18015)">
<path d="M1213.91 1270.76C1213.91 990.555 1253.87 862.247 984.636 862.247C676.898 862.247 707.87 990.555 707.87 1270.76C707.87 1550.96 779.215 1645.65 984.636 1645.65C1190.06 1645.65 1213.91 1509.07 1213.91 1270.76Z" fill="#0797FF" fill-opacity="0.6"/>
</g>
<g opacity="0.4" filter="url(#filter10_f_1034_18015)">
<path d="M2081 987.049C2081 1147.63 1953.51 1284.93 1729.34 1284.93C1505.16 1284.93 1355 1147.63 1355 987.049C1355 826.471 1505.16 654.34 1729.34 654.34C1953.51 654.34 2081 790.33 2081 987.049Z" fill="#5238A3"/>
</g>
<g opacity="0.4" filter="url(#filter11_f_1034_18015)">
<path d="M574.705 1072.28C574.705 1202.21 326.924 1366.86 183.924 1366.86C40.9244 1366.86 -75 1261.52 -75 1131.59C-75 1001.66 52.1105 801.63 195.111 801.63C338.111 801.63 704.297 896.326 574.705 1072.28Z" fill="#209B79"/>
</g>
<g opacity="0.45" filter="url(#filter12_f_1034_18015)">
<path d="M1065 2134.2C1065 2236.42 1369.2 2441.8 1589.24 2441.8C1809.27 2441.8 1875 2236.42 1875 2134.2C1875 2031.97 1809.27 1860 1589.24 1860C1369.2 1860 1065 2031.97 1065 2134.2Z" fill="#5238A3"/>
</g>
<g opacity="0.45" filter="url(#filter13_f_1034_18015)">
<path d="M885 2134.2C885 2236.42 580.801 2441.8 360.763 2441.8C140.725 2441.8 75 2236.42 75 2134.2C75 2031.97 140.725 1860 360.763 1860C580.801 1860 885 2031.97 885 2134.2Z" fill="#5238A3"/>
</g>
<g opacity="0.25" filter="url(#filter14_f_1034_18015)">
<path d="M1930 3039.83C1930 3263.47 1422.52 3431.99 1154.5 3431.99C886.478 3431.99 394 3263.47 394 3039.83C394 2816.19 886.478 2594.74 1154.5 2594.74C1422.52 2594.74 1930 2765.86 1930 3039.83Z" fill="#5238A3"/>
</g>
<g opacity="0.4" filter="url(#filter15_f_1034_18015)">
<path d="M577.729 3391.83C577.729 3532.05 357.398 3709.74 230.24 3709.74C103.082 3709.74 0 3596.06 0 3455.84C0 3315.61 113.029 3099.74 240.187 3099.74C367.345 3099.74 692.964 3201.93 577.729 3391.83Z" fill="#209B79"/>
</g>
<g opacity="0.55" filter="url(#filter16_f_1034_18015)">
<path d="M1147 3044.55C1147 3242.82 975.143 3401.15 756.735 3401.15C538.327 3401.15 343 3242.82 343 3044.55C343 2846.28 538.327 2701.52 756.735 2701.52C975.143 2701.52 1147 2846.28 1147 3044.55Z" fill="#5238A3"/>
</g>
<g opacity="0.4" filter="url(#filter17_f_1034_18015)">
<path d="M788.231 3928.54C788.231 4058.42 454.44 4223 261.802 4223C69.1641 4223 -87 4117.71 -87 3987.83C-87 3857.95 84.2331 3658 276.871 3658C469.509 3658 962.807 3752.66 788.231 3928.54Z" fill="#209B79"/>
</g>
<g opacity="0.5" filter="url(#filter18_f_1034_18015)">
<path d="M2032 4233.5C2032 4440.3 1821.55 4830 1707.86 4830C1594.17 4830 1502 4580.26 1502 4373.46C1502 4166.66 1650.11 3872.86 1763.8 3872.86C1877.49 3872.86 1982.63 3710.36 2032 4233.5Z" fill="#5238A3"/>
</g>
<g opacity="0.45" filter="url(#filter19_f_1034_18015)">
<path d="M1606 4594.29C1606 4696.56 1525.17 4902 916.056 4902C306.942 4902 125 4696.56 125 4594.29C125 4492.03 306.942 4320 916.056 4320C1525.17 4320 1606 4492.03 1606 4594.29Z" fill="#5238A3"/>
</g>
<g opacity="0.45" filter="url(#filter20_f_1034_18015)">
<path d="M1685 5291.29C1685 5393.56 1585.07 5599 832.004 5599C78.9398 5599 -146 5393.56 -146 5291.29C-146 5189.03 78.9398 5017 832.004 5017C1585.07 5017 1685 5189.03 1685 5291.29Z" fill="#5238A3"/>
</g>
<g opacity="0.55">
<g opacity="0.75" filter="url(#filter21_f_1034_18015)">
<path d="M813.206 6146.25C813.206 6263.03 542.733 6411 386.637 6411C230.541 6411 104 6316.33 104 6199.55C104 6082.78 242.751 5903 398.847 5903C554.943 5903 954.666 5988.11 813.206 6146.25Z" fill="#209B79"/>
</g>
<g opacity="0.75" filter="url(#filter22_f_1034_18015)">
<path d="M1821 5771.73C1821 5940.35 1702.58 6075 1552.09 6075C1401.59 6075 1267 5940.35 1267 5771.73C1267 5603.11 1401.59 5480 1552.09 5480C1702.58 5480 1821 5603.11 1821 5771.73Z" fill="#5238A3"/>
</g>
</g>
<g opacity="0.75" filter="url(#filter23_f_1034_18015)">
<path d="M972.038 7087.66C972.038 6816.96 1028.57 6693 647.726 6693C212.419 6693 256.23 6816.96 256.23 7087.66C256.23 7358.37 357.15 7383 647.726 7383C938.302 7383 972.038 7317.9 972.038 7087.66Z" fill="#0797FF"/>
</g>
<g opacity="0.4" filter="url(#filter24_f_1034_18015)">
<path d="M2159.49 7208.37C2150.11 7452.94 1875.23 7752.76 1723.45 7746.94C1571.67 7741.12 1456.23 7538.14 1465.61 7293.57C1474.99 7049 1624.34 6677.66 1776.12 6683.48C1927.9 6689.3 2309.74 6882.45 2159.49 7208.37Z" fill="#209B79"/>
</g>
<g opacity="0.55">
<g opacity="0.6" filter="url(#filter25_f_1034_18015)">
<path d="M2237.18 7723.44C2237.18 7935.85 1748.57 8205 1466.58 8205C1184.6 8205 956 8032.81 956 7820.4C956 7607.99 1206.65 7281 1488.64 7281C1770.63 7281 2492.72 7435.8 2237.18 7723.44Z" fill="#209B79"/>
</g>
<g opacity="0.75" filter="url(#filter26_f_1034_18015)">
<path d="M705 8204.5C705 8452.76 530.578 8651 308.91 8651C87.242 8651 -111 8452.76 -111 8204.5C-111 7956.25 87.242 7775 308.91 7775C530.578 7775 705 7956.25 705 8204.5Z" fill="#5238A3"/>
</g>
</g>
<g opacity="0.55">
<g opacity="0.6" filter="url(#filter27_f_1034_18015)">
<path d="M922.584 8693.35C922.584 8781.85 719.089 8894 601.647 8894C484.205 8894 389 8822.25 389 8733.75C389 8645.25 493.392 8509 610.834 8509C728.275 8509 1029.01 8573.5 922.584 8693.35Z" fill="#209B79"/>
</g>
<g opacity="0.75" filter="url(#filter28_f_1034_18015)">
<path d="M1832 8751.14C1832 8907.85 1721.92 9033 1582.02 9033C1442.12 9033 1317 8907.85 1317 8751.14C1317 8594.42 1442.12 8480 1582.02 8480C1721.92 8480 1832 8594.42 1832 8751.14Z" fill="#5238A3"/>
</g>
</g>
</g>
<defs>
<filter id="filter0_f_1034_18015" x="1141" y="453" width="540" height="506.622" filterUnits="userSpaceOnUse" color-interpolation-filters="sRGB">
<feFlood flood-opacity="0" result="BackgroundImageFix"/>
<feBlend mode="normal" in="SourceGraphic" in2="BackgroundImageFix" result="shape"/>
<feGaussianBlur stdDeviation="85" result="effect1_foregroundBlur_1034_18015"/>
</filter>
<filter id="filter1_f_1034_18015" x="1455" y="417" width="540" height="506.622" filterUnits="userSpaceOnUse" color-interpolation-filters="sRGB">
<feFlood flood-opacity="0" result="BackgroundImageFix"/>
<feBlend mode="normal" in="SourceGraphic" in2="BackgroundImageFix" result="shape"/>
<feGaussianBlur stdDeviation="85" result="effect1_foregroundBlur_1034_18015"/>
</filter>
<filter id="filter2_f_1034_18015" x="1453" y="334.184" width="360" height="304.024" filterUnits="userSpaceOnUse" color-interpolation-filters="sRGB">
<feFlood flood-opacity="0" result="BackgroundImageFix"/>
<feBlend mode="normal" in="SourceGraphic" in2="BackgroundImageFix" result="shape"/>
<feGaussianBlur stdDeviation="50" result="effect1_foregroundBlur_1034_18015"/>
</filter>
<filter id="filter3_f_1034_18015" x="1530" y="224" width="333" height="305.865" filterUnits="userSpaceOnUse" color-interpolation-filters="sRGB">
<feFlood flood-opacity="0" result="BackgroundImageFix"/>
<feBlend mode="normal" in="SourceGraphic" in2="BackgroundImageFix" result="shape"/>
<feGaussianBlur stdDeviation="50" result="effect1_foregroundBlur_1034_18015"/>
</filter>
<filter id="filter4_f_1034_18015" x="1173" y="-60" width="540" height="506.622" filterUnits="userSpaceOnUse" color-interpolation-filters="sRGB">
<feFlood flood-opacity="0" result="BackgroundImageFix"/>
<feBlend mode="normal" in="SourceGraphic" in2="BackgroundImageFix" result="shape"/>
<feGaussianBlur stdDeviation="85" result="effect1_foregroundBlur_1034_18015"/>
</filter>
<filter id="filter5_f_1034_18015" x="922" y="428" width="340" height="296.659" filterUnits="userSpaceOnUse" color-interpolation-filters="sRGB">
<feFlood flood-opacity="0" result="BackgroundImageFix"/>
<feBlend mode="normal" in="SourceGraphic" in2="BackgroundImageFix" result="shape"/>
<feGaussianBlur stdDeviation="50" result="effect1_foregroundBlur_1034_18015"/>
</filter>
<filter id="filter6_f_1034_18015" x="903" y="548" width="340" height="292.977" filterUnits="userSpaceOnUse" color-interpolation-filters="sRGB">
<feFlood flood-opacity="0" result="BackgroundImageFix"/>
<feBlend mode="normal" in="SourceGraphic" in2="BackgroundImageFix" result="shape"/>
<feGaussianBlur stdDeviation="50" result="effect1_foregroundBlur_1034_18015"/>
</filter>
<filter id="filter7_f_1034_18015" x="-370" y="-258.555" width="1648" height="1395.61" filterUnits="userSpaceOnUse" color-interpolation-filters="sRGB">
<feFlood flood-opacity="0" result="BackgroundImageFix"/>
<feBlend mode="normal" in="SourceGraphic" in2="BackgroundImageFix" result="shape"/>
<feGaussianBlur stdDeviation="200" result="effect1_foregroundBlur_1034_18015"/>
</filter>
<filter id="filter8_f_1034_18015" x="297" y="-362.579" width="1425" height="1321.96" filterUnits="userSpaceOnUse" color-interpolation-filters="sRGB">
<feFlood flood-opacity="0" result="BackgroundImageFix"/>
<feBlend mode="normal" in="SourceGraphic" in2="BackgroundImageFix" result="shape"/>
<feGaussianBlur stdDeviation="200" result="effect1_foregroundBlur_1034_18015"/>
</filter>
<filter id="filter9_f_1034_18015" x="307" y="462.247" width="1309" height="1583.4" filterUnits="userSpaceOnUse" color-interpolation-filters="sRGB">
<feFlood flood-opacity="0" result="BackgroundImageFix"/>
<feBlend mode="normal" in="SourceGraphic" in2="BackgroundImageFix" result="shape"/>
<feGaussianBlur stdDeviation="200" result="effect1_foregroundBlur_1034_18015"/>
</filter>
<filter id="filter10_f_1034_18015" x="955" y="254.34" width="1526" height="1430.59" filterUnits="userSpaceOnUse" color-interpolation-filters="sRGB">
<feFlood flood-opacity="0" result="BackgroundImageFix"/>
<feBlend mode="normal" in="SourceGraphic" in2="BackgroundImageFix" result="shape"/>
<feGaussianBlur stdDeviation="200" result="effect1_foregroundBlur_1034_18015"/>
</filter>
<filter id="filter11_f_1034_18015" x="-475" y="401.63" width="1477" height="1365.23" filterUnits="userSpaceOnUse" color-interpolation-filters="sRGB">
<feFlood flood-opacity="0" result="BackgroundImageFix"/>
<feBlend mode="normal" in="SourceGraphic" in2="BackgroundImageFix" result="shape"/>
<feGaussianBlur stdDeviation="200" result="effect1_foregroundBlur_1034_18015"/>
</filter>
<filter id="filter12_f_1034_18015" x="665" y="1460" width="1610" height="1381.8" filterUnits="userSpaceOnUse" color-interpolation-filters="sRGB">
<feFlood flood-opacity="0" result="BackgroundImageFix"/>
<feBlend mode="normal" in="SourceGraphic" in2="BackgroundImageFix" result="shape"/>
<feGaussianBlur stdDeviation="200" result="effect1_foregroundBlur_1034_18015"/>
</filter>
<filter id="filter13_f_1034_18015" x="-325" y="1460" width="1610" height="1381.8" filterUnits="userSpaceOnUse" color-interpolation-filters="sRGB">
<feFlood flood-opacity="0" result="BackgroundImageFix"/>
<feBlend mode="normal" in="SourceGraphic" in2="BackgroundImageFix" result="shape"/>
<feGaussianBlur stdDeviation="200" result="effect1_foregroundBlur_1034_18015"/>
</filter>
<filter id="filter14_f_1034_18015" x="-6" y="2194.74" width="2336" height="1637.25" filterUnits="userSpaceOnUse" color-interpolation-filters="sRGB">
<feFlood flood-opacity="0" result="BackgroundImageFix"/>
<feBlend mode="normal" in="SourceGraphic" in2="BackgroundImageFix" result="shape"/>
<feGaussianBlur stdDeviation="200" result="effect1_foregroundBlur_1034_18015"/>
</filter>
<filter id="filter15_f_1034_18015" x="-400" y="2699.74" width="1402" height="1410" filterUnits="userSpaceOnUse" color-interpolation-filters="sRGB">
<feFlood flood-opacity="0" result="BackgroundImageFix"/>
<feBlend mode="normal" in="SourceGraphic" in2="BackgroundImageFix" result="shape"/>
<feGaussianBlur stdDeviation="200" result="effect1_foregroundBlur_1034_18015"/>
</filter>
<filter id="filter16_f_1034_18015" x="-57" y="2301.52" width="1604" height="1499.63" filterUnits="userSpaceOnUse" color-interpolation-filters="sRGB">
<feFlood flood-opacity="0" result="BackgroundImageFix"/>
<feBlend mode="normal" in="SourceGraphic" in2="BackgroundImageFix" result="shape"/>
<feGaussianBlur stdDeviation="200" result="effect1_foregroundBlur_1034_18015"/>
</filter>
<filter id="filter17_f_1034_18015" x="-487" y="3258" width="1712" height="1365" filterUnits="userSpaceOnUse" color-interpolation-filters="sRGB">
<feFlood flood-opacity="0" result="BackgroundImageFix"/>
<feBlend mode="normal" in="SourceGraphic" in2="BackgroundImageFix" result="shape"/>
<feGaussianBlur stdDeviation="200" result="effect1_foregroundBlur_1034_18015"/>
</filter>
<filter id="filter18_f_1034_18015" x="1102" y="3449" width="1330" height="1781" filterUnits="userSpaceOnUse" color-interpolation-filters="sRGB">
<feFlood flood-opacity="0" result="BackgroundImageFix"/>
<feBlend mode="normal" in="SourceGraphic" in2="BackgroundImageFix" result="shape"/>
<feGaussianBlur stdDeviation="200" result="effect1_foregroundBlur_1034_18015"/>
</filter>
<filter id="filter19_f_1034_18015" x="-275" y="3920" width="2281" height="1382" filterUnits="userSpaceOnUse" color-interpolation-filters="sRGB">
<feFlood flood-opacity="0" result="BackgroundImageFix"/>
<feBlend mode="normal" in="SourceGraphic" in2="BackgroundImageFix" result="shape"/>
<feGaussianBlur stdDeviation="200" result="effect1_foregroundBlur_1034_18015"/>
</filter>
<filter id="filter20_f_1034_18015" x="-546" y="4617" width="2631" height="1382" filterUnits="userSpaceOnUse" color-interpolation-filters="sRGB">
<feFlood flood-opacity="0" result="BackgroundImageFix"/>
<feBlend mode="normal" in="SourceGraphic" in2="BackgroundImageFix" result="shape"/>
<feGaussianBlur stdDeviation="200" result="effect1_foregroundBlur_1034_18015"/>
</filter>
<filter id="filter21_f_1034_18015" x="-296" y="5503" width="1539" height="1308" filterUnits="userSpaceOnUse" color-interpolation-filters="sRGB">
<feFlood flood-opacity="0" result="BackgroundImageFix"/>
<feBlend mode="normal" in="SourceGraphic" in2="BackgroundImageFix" result="shape"/>
<feGaussianBlur stdDeviation="200" result="effect1_foregroundBlur_1034_18015"/>
</filter>
<filter id="filter22_f_1034_18015" x="867" y="5080" width="1354" height="1395" filterUnits="userSpaceOnUse" color-interpolation-filters="sRGB">
<feFlood flood-opacity="0" result="BackgroundImageFix"/>
<feBlend mode="normal" in="SourceGraphic" in2="BackgroundImageFix" result="shape"/>
<feGaussianBlur stdDeviation="200" result="effect1_foregroundBlur_1034_18015"/>
</filter>
<filter id="filter23_f_1034_18015" x="-145" y="6293" width="1520" height="1490" filterUnits="userSpaceOnUse" color-interpolation-filters="sRGB">
<feFlood flood-opacity="0" result="BackgroundImageFix"/>
<feBlend mode="normal" in="SourceGraphic" in2="BackgroundImageFix" result="shape"/>
<feGaussianBlur stdDeviation="200" result="effect1_foregroundBlur_1034_18015"/>
</filter>
<filter id="filter24_f_1034_18015" x="1065.07" y="6283.41" width="1528.8" height="1863.61" filterUnits="userSpaceOnUse" color-interpolation-filters="sRGB">
<feFlood flood-opacity="0" result="BackgroundImageFix"/>
<feBlend mode="normal" in="SourceGraphic" in2="BackgroundImageFix" result="shape"/>
<feGaussianBlur stdDeviation="200" result="effect1_foregroundBlur_1034_18015"/>
</filter>
<filter id="filter25_f_1034_18015" x="556" y="6881" width="2135" height="1724" filterUnits="userSpaceOnUse" color-interpolation-filters="sRGB">
<feFlood flood-opacity="0" result="BackgroundImageFix"/>
<feBlend mode="normal" in="SourceGraphic" in2="BackgroundImageFix" result="shape"/>
<feGaussianBlur stdDeviation="200" result="effect1_foregroundBlur_1034_18015"/>
</filter>
<filter id="filter26_f_1034_18015" x="-511" y="7375" width="1616" height="1676" filterUnits="userSpaceOnUse" color-interpolation-filters="sRGB">
<feFlood flood-opacity="0" result="BackgroundImageFix"/>
<feBlend mode="normal" in="SourceGraphic" in2="BackgroundImageFix" result="shape"/>
<feGaussianBlur stdDeviation="200" result="effect1_foregroundBlur_1034_18015"/>
</filter>
<filter id="filter27_f_1034_18015" x="-11" y="8109" width="1356" height="1185" filterUnits="userSpaceOnUse" color-interpolation-filters="sRGB">
<feFlood flood-opacity="0" result="BackgroundImageFix"/>
<feBlend mode="normal" in="SourceGraphic" in2="BackgroundImageFix" result="shape"/>
<feGaussianBlur stdDeviation="200" result="effect1_foregroundBlur_1034_18015"/>
</filter>
<filter id="filter28_f_1034_18015" x="917" y="8080" width="1315" height="1353" filterUnits="userSpaceOnUse" color-interpolation-filters="sRGB">
<feFlood flood-opacity="0" result="BackgroundImageFix"/>
<feBlend mode="normal" in="SourceGraphic" in2="BackgroundImageFix" result="shape"/>
<feGaussianBlur stdDeviation="200" result="effect1_foregroundBlur_1034_18015"/>
</filter>
<clipPath id="clip0_1034_18015">
<rect width="1920" height="8997" fill="white"/>
</clipPath>
</defs>
</svg>
