<svg width="135" height="27" viewBox="0 0 135 27" fill="none" xmlns="http://www.w3.org/2000/svg">
<path d="M94.5 0L97.5309 9.32827H107.339L99.4042 15.0935L102.435 24.4217L94.5 18.6565L86.5649 24.4217L89.5958 15.0935L81.6607 9.32827H91.4691L94.5 0Z" fill="#ED7440"/>
<path d="M121.5 0L124.531 9.32827H134.339L126.404 15.0935L129.435 24.4217L121.5 18.6565L113.565 24.4217L116.596 15.0935L108.661 9.32827H118.469L121.5 0Z" fill="#ED7440"/>
<path d="M67.5 0L70.5309 9.32827H80.3393L72.4042 15.0935L75.4351 24.4217L67.5 18.6565L59.5649 24.4217L62.5958 15.0935L54.6607 9.32827H64.4691L67.5 0Z" fill="#ED7440"/>
<path d="M40.5 0L43.5309 9.32827H53.3393L45.4042 15.0935L48.4351 24.4217L40.5 18.6565L32.5649 24.4217L35.5958 15.0935L27.6607 9.32827H37.4691L40.5 0Z" fill="#ED7440"/>
<path d="M13.5 0L16.5309 9.32827H26.3393L18.4042 15.0935L21.4351 24.4217L13.5 18.6565L5.5649 24.4217L8.59584 15.0935L0.660737 9.32827H10.4691L13.5 0Z" fill="#ED7440"/>
</svg>
