<svg width="135" height="28" viewBox="0 0 135 28" fill="none" xmlns="http://www.w3.org/2000/svg">
<path d="M121.5 1.99157L124.055 9.85631L124.168 10.2018H124.531H132.8L126.11 15.0625L125.816 15.276L125.929 15.6215L128.484 23.4862L121.794 18.6256L121.5 18.412L121.206 18.6256L114.516 23.4862L117.071 15.6215L117.184 15.276L116.89 15.0625L110.2 10.2018H118.469H118.832L118.945 9.85631L121.5 1.99157Z" stroke="#8CC2E9"/>
<path d="M94.5 1.99157L97.0554 9.85631L97.1677 10.2018H97.5309H105.8L99.1103 15.0625L98.8164 15.276L98.9286 15.6215L101.484 23.4862L94.7939 18.6256L94.5 18.412L94.2061 18.6256L87.516 23.4862L90.0714 15.6215L90.1836 15.276L89.8897 15.0625L83.1996 10.2018H91.4691H91.8323L91.9446 9.85631L94.5 1.99157Z" fill="url(#paint0_linear_47_954)" stroke="#8CC2E9"/>
<path d="M40.5 0.373535L43.5309 9.70181H53.3393L45.4042 15.467L48.4351 24.7953L40.5 19.0301L32.5649 24.7953L35.5958 15.467L27.6607 9.70181H37.4691L40.5 0.373535Z" fill="#4F9FD7"/>
<path d="M67.5 0.373535L70.5309 9.70181H80.3393L72.4042 15.467L75.4351 24.7953L67.5 19.0301L59.5649 24.7953L62.5958 15.467L54.6607 9.70181H64.4691L67.5 0.373535Z" fill="#4F9FD7"/>
<path d="M13.5 0.373535L16.5309 9.70181H26.3393L18.4042 15.467L21.4351 24.7953L13.5 19.0301L5.5649 24.7953L8.59584 15.467L0.660737 9.70181H10.4691L13.5 0.373535Z" fill="#4F9FD7"/>
<defs>
<linearGradient id="paint0_linear_47_954" x1="108" y1="14" x2="81" y2="13.8735" gradientUnits="userSpaceOnUse">
<stop offset="0.5" stop-color="#8CC2E9" stop-opacity="0"/>
<stop offset="0.5" stop-color="#8CC2E9"/>
</linearGradient>
</defs>
</svg>
