<svg width="30" height="30" viewBox="0 0 30 30" fill="none" xmlns="http://www.w3.org/2000/svg">
<path d="M23.6731 18.063L18.8727 15.663C18.7782 15.6159 18.673 15.5946 18.5676 15.6012C18.4623 15.6078 18.3605 15.642 18.2727 15.7005L15.7765 17.3655C14.4043 16.7075 13.2978 15.601 12.6397 14.229L14.3049 11.733C14.3633 11.6451 14.3976 11.5434 14.4042 11.438C14.4108 11.3327 14.3894 11.2275 14.3424 11.133L11.9422 6.333C11.8924 6.23281 11.8156 6.14853 11.7204 6.08969C11.6252 6.03085 11.5155 5.99978 11.4036 6C9.97136 6 8.59775 6.56893 7.58498 7.58162C6.57221 8.59432 6.00324 9.96783 6.00324 11.4C6.00681 14.7406 7.33555 17.9434 9.69791 20.3056C12.0603 22.6678 15.2633 23.9964 18.6042 24C20.0365 24 21.4101 23.4311 22.4228 22.4184C23.4356 21.4057 24.0046 20.0322 24.0046 18.6C24.0047 18.4885 23.9737 18.3792 23.9151 18.2844C23.8566 18.1895 23.7727 18.1129 23.6731 18.063ZM18.6042 22.8C15.5815 22.7968 12.6835 21.5947 10.5461 19.4575C8.40868 17.3203 7.2065 14.4225 7.20333 11.4C7.20315 10.3488 7.59719 9.33576 8.30764 8.56094C9.01808 7.78612 9.99327 7.30585 11.0406 7.215L13.1108 11.3565L11.4606 13.8375C11.4056 13.9194 11.3717 14.0135 11.3617 14.1116C11.3518 14.2097 11.3662 14.3088 11.4036 14.4C12.2009 16.2952 13.7086 17.8028 15.604 18.6C15.6953 18.6379 15.7945 18.6527 15.8929 18.643C15.9913 18.6334 16.0858 18.5995 16.168 18.5445L18.6492 16.8945L22.791 18.9645C22.6998 20.0117 22.2191 20.9867 21.4439 21.6968C20.6688 22.4069 19.6555 22.8006 18.6042 22.8ZM15.0039 2.59149e-07C12.3923 -0.000485087 9.82589 0.680772 7.55842 1.97639C5.29096 3.272 3.40103 5.13707 2.0756 7.38713C0.750162 9.63719 0.035142 12.1943 0.00126265 14.8054C-0.0326167 17.4166 0.615819 19.9913 1.88243 22.275L0.0972952 27.6285C-0.00848 27.9457 -0.0238303 28.286 0.0529646 28.6114C0.12976 28.9368 0.295665 29.2343 0.532086 29.4707C0.768506 29.7071 1.0661 29.873 1.39151 29.9498C1.71692 30.0266 2.05729 30.0113 2.37447 29.9055L7.72837 28.1205C9.73109 29.2301 11.9613 29.8666 14.248 29.9812C16.5348 30.0958 18.8174 29.6855 20.921 28.7816C23.0247 27.8778 24.8935 26.5045 26.3843 24.7668C27.8751 23.0292 28.9484 20.9734 29.5219 18.7569C30.0953 16.5405 30.1538 14.2221 29.6927 11.9796C29.2317 9.73703 28.2634 7.62977 26.862 5.81923C25.4607 4.0087 23.6634 2.54294 21.608 1.53427C19.5526 0.525594 17.2935 0.000768051 15.0039 2.59149e-07ZM15.0039 28.8C12.5774 28.8007 10.1936 28.1618 8.09289 26.9475C8.0016 26.8949 7.89821 26.867 7.79287 26.8665C7.72807 26.8665 7.6637 26.8771 7.60236 26.898L1.99494 28.767C1.88921 28.8023 1.77576 28.8074 1.66729 28.7818C1.55882 28.7562 1.45962 28.7009 1.38081 28.6221C1.302 28.5433 1.2467 28.4441 1.2211 28.3356C1.19551 28.2272 1.20062 28.1137 1.23588 28.008L3.10502 22.401C3.13198 22.3204 3.14151 22.235 3.13298 22.1504C3.12444 22.0659 3.09804 21.9841 3.05552 21.9105C1.53396 19.2806 0.922889 16.2221 1.31711 13.2096C1.71133 10.197 3.0888 7.39868 5.23583 5.24879C7.38286 3.0989 10.1794 1.7176 13.1917 1.31917C16.2039 0.920746 19.2635 1.52747 21.8957 3.04522C24.5279 4.56296 26.5856 6.90689 27.7497 9.71337C28.9137 12.5199 29.1189 15.632 28.3335 18.567C27.5481 21.502 25.816 24.0958 23.4059 25.9461C20.9958 27.7963 18.0424 28.7995 15.0039 28.8Z" fill="white"/>
</svg>
